<svg width="512" height="512" viewBox="0 0 512 512" fill="none" xmlns="http://www.w3.org/2000/svg">
<g clip-path="url(#clip0_3764_7232)">
<path fill-rule="evenodd" clip-rule="evenodd" d="M333.904 80.4573C357.908 91.8775 378.827 89.6916 400.791 109.372C416.89 123.797 425.371 144.687 426.422 166.009C426.682 171.298 426.61 176.621 426.609 181.914C426.709 182.1 426.806 182.288 426.91 182.472C430.207 188.359 435.399 192.983 438.91 198.754C447.557 212.972 450.84 229.603 449.016 246.077C448.268 252.821 446.799 259.448 446.125 266.208C445.155 275.931 446.048 288.65 443.806 297.584C443.358 299.366 442.745 301.033 440.941 301.842C438.585 302.899 436.146 302.301 433.884 301.272C429.381 299.224 425.39 295.921 420.629 294.432C413.084 292.073 404.196 292.884 396.335 292.378C388.318 291.862 380.189 289.881 372.665 287.101C348.557 278.192 323.267 254.44 297.002 253.047C296.899 255.387 296.599 257.75 296.084 260.116L295.842 261.166C293.673 270.05 288.781 277.588 282.254 283.091C297.785 304.364 312.886 318.911 329.805 328.798C350.299 340.773 374.179 346.337 406.229 347.843C406.299 347.474 406.374 347.105 406.454 346.737C406.56 346.249 406.677 345.766 406.799 345.286C406.856 345.063 406.911 344.84 406.972 344.619C407.027 344.415 407.087 344.212 407.145 344.01C407.278 343.551 407.415 343.095 407.561 342.645C407.622 342.457 407.688 342.271 407.751 342.085C407.801 341.94 407.848 341.794 407.9 341.649C407.951 341.505 408.005 341.362 408.058 341.219C408.246 340.706 408.44 340.197 408.647 339.695C408.708 339.545 408.774 339.397 408.837 339.249C408.91 339.077 408.981 338.904 409.056 338.733C409.128 338.571 409.203 338.41 409.276 338.249C409.343 338.104 409.407 337.958 409.475 337.814C409.556 337.643 409.64 337.473 409.723 337.303C409.789 337.169 409.853 337.033 409.92 336.9C410 336.74 410.083 336.581 410.165 336.423C410.247 336.263 410.329 336.103 410.414 335.944C410.477 335.827 410.541 335.711 410.605 335.595C410.699 335.423 410.792 335.251 410.888 335.081C410.978 334.921 411.071 334.764 411.164 334.605C411.242 334.471 411.319 334.336 411.398 334.203C411.488 334.052 411.581 333.903 411.673 333.754C411.753 333.623 411.833 333.492 411.914 333.363C412.013 333.207 412.114 333.053 412.214 332.899C412.309 332.753 412.404 332.606 412.501 332.461C412.582 332.34 412.664 332.22 412.747 332.099C412.855 331.94 412.963 331.782 413.074 331.625C413.157 331.507 413.242 331.391 413.326 331.274C413.43 331.129 413.533 330.984 413.639 330.84C413.748 330.693 413.859 330.548 413.969 330.402C414.054 330.292 414.136 330.18 414.222 330.071C414.335 329.924 414.451 329.78 414.567 329.635C414.67 329.506 414.773 329.376 414.878 329.248C414.978 329.125 415.08 329.004 415.182 328.882C415.288 328.755 415.394 328.628 415.502 328.502C415.629 328.354 415.758 328.207 415.887 328.06C415.974 327.962 416.06 327.864 416.148 327.767C416.283 327.616 416.42 327.468 416.557 327.32C416.655 327.214 416.753 327.107 416.852 327.002C416.979 326.868 417.108 326.736 417.236 326.604C417.332 326.505 417.427 326.406 417.524 326.308C417.658 326.173 417.793 326.04 417.928 325.907C418.042 325.795 418.156 325.684 418.271 325.574C418.393 325.456 418.516 325.34 418.64 325.224C418.746 325.124 418.852 325.025 418.959 324.926C419.104 324.794 419.25 324.662 419.396 324.532C419.497 324.442 419.598 324.352 419.7 324.262C419.839 324.141 419.978 324.021 420.118 323.902C420.236 323.801 420.354 323.701 420.473 323.601C420.604 323.492 420.736 323.385 420.868 323.278C421.001 323.171 421.133 323.063 421.267 322.957C421.385 322.863 421.504 322.77 421.624 322.678C421.766 322.567 421.909 322.458 422.052 322.35C422.177 322.256 422.303 322.163 422.429 322.07C422.567 321.968 422.705 321.866 422.845 321.766C422.985 321.665 423.127 321.565 423.269 321.466C423.392 321.38 423.515 321.295 423.639 321.21C423.775 321.117 423.912 321.025 424.049 320.933C424.199 320.834 424.349 320.734 424.5 320.636C424.634 320.55 424.768 320.464 424.902 320.379C425.037 320.294 425.173 320.209 425.309 320.125C425.45 320.038 425.592 319.952 425.735 319.867C425.887 319.775 426.04 319.685 426.193 319.596C426.336 319.512 426.48 319.43 426.624 319.348C426.755 319.274 426.885 319.201 427.016 319.129C427.171 319.043 427.326 318.957 427.482 318.874C427.622 318.798 427.763 318.725 427.904 318.651C428.067 318.566 428.23 318.481 428.394 318.399C428.519 318.335 428.645 318.273 428.772 318.21C428.936 318.13 429.1 318.05 429.265 317.972C429.425 317.895 429.585 317.821 429.746 317.746C429.885 317.683 430.023 317.619 430.162 317.557C430.316 317.488 430.47 317.42 430.625 317.353C430.766 317.292 430.908 317.23 431.051 317.17C431.216 317.1 431.382 317.032 431.549 316.965C431.697 316.905 431.845 316.846 431.993 316.788C432.159 316.723 432.325 316.66 432.491 316.598C432.63 316.545 432.768 316.492 432.908 316.441C433.072 316.381 433.237 316.323 433.402 316.265C433.563 316.208 433.724 316.152 433.886 316.098C434.046 316.044 434.208 315.99 434.369 315.938C434.514 315.891 434.66 315.844 434.806 315.799C434.963 315.75 435.121 315.703 435.278 315.656C435.459 315.602 435.639 315.548 435.82 315.496C435.94 315.462 436.06 315.43 436.18 315.397C436.373 315.344 436.567 315.292 436.761 315.241C436.897 315.206 437.033 315.172 437.169 315.139C437.364 315.09 437.559 315.042 437.755 314.996C437.9 314.963 438.044 314.932 438.189 314.9C438.362 314.861 438.535 314.822 438.709 314.786C438.865 314.754 439.022 314.723 439.178 314.692C439.354 314.658 439.53 314.623 439.707 314.591C439.845 314.566 439.984 314.543 440.123 314.519C440.32 314.485 440.516 314.45 440.714 314.419C440.853 314.397 440.992 314.377 441.131 314.357C441.32 314.329 441.508 314.301 441.697 314.276C441.867 314.253 442.037 314.234 442.208 314.214C442.37 314.194 442.533 314.173 442.696 314.156C442.853 314.139 443.01 314.124 443.167 314.109C443.354 314.091 443.541 314.072 443.728 314.056C443.895 314.042 444.062 314.032 444.229 314.02C444.392 314.008 444.555 313.996 444.719 313.986C444.91 313.975 445.101 313.967 445.292 313.958C445.444 313.951 445.596 313.943 445.748 313.937C445.923 313.931 446.099 313.929 446.274 313.925C446.447 313.922 446.62 313.917 446.793 313.916C446.923 313.915 447.052 313.916 447.181 313.916C447.401 313.916 447.622 313.915 447.842 313.919C447.94 313.92 448.038 313.924 448.137 313.927C448.383 313.932 448.629 313.939 448.876 313.949C448.957 313.952 449.037 313.957 449.118 313.961C449.385 313.973 449.652 313.987 449.92 314.004C449.984 314.009 450.048 314.014 450.112 314.019C450.387 314.038 450.663 314.06 450.939 314.085C451.116 314.101 451.293 314.121 451.47 314.139C451.638 314.157 451.807 314.172 451.975 314.192C452.085 314.204 452.195 314.219 452.304 314.233C453.585 314.392 454.871 314.608 456.156 314.89C457.048 315.085 457.927 315.31 458.792 315.558C458.947 315.603 459.101 315.645 459.255 315.691C459.432 315.744 459.607 315.801 459.782 315.857C459.939 315.906 460.096 315.952 460.252 316.003C460.439 316.065 460.625 316.13 460.812 316.194C460.957 316.244 461.104 316.291 461.248 316.343C461.421 316.404 461.591 316.469 461.762 316.532C461.917 316.589 462.073 316.645 462.227 316.704C462.452 316.79 462.674 316.88 462.897 316.97C462.989 317.007 463.082 317.042 463.174 317.08C463.39 317.169 463.605 317.262 463.819 317.354C463.924 317.399 464.029 317.442 464.133 317.488C464.317 317.569 464.498 317.654 464.68 317.737C464.816 317.799 464.953 317.86 465.088 317.924C465.262 318.006 465.434 318.091 465.606 318.175C465.736 318.239 465.868 318.301 465.998 318.366C466.157 318.446 466.315 318.528 466.472 318.61C466.627 318.69 466.782 318.77 466.936 318.852C467.061 318.918 467.184 318.987 467.308 319.055C467.482 319.15 467.656 319.244 467.827 319.341C467.991 319.434 468.153 319.529 468.315 319.624C468.435 319.694 468.556 319.763 468.675 319.834C468.834 319.929 468.992 320.026 469.149 320.123C469.294 320.212 469.438 320.3 469.581 320.391C469.711 320.472 469.839 320.556 469.967 320.64C470.115 320.735 470.263 320.831 470.41 320.928C470.574 321.038 470.737 321.15 470.899 321.261C471.009 321.336 471.119 321.411 471.227 321.487C471.402 321.609 471.576 321.734 471.749 321.86C471.846 321.93 471.945 322 472.042 322.072C472.198 322.187 472.354 322.305 472.508 322.422C472.631 322.515 472.754 322.609 472.875 322.703C473.004 322.803 473.131 322.905 473.259 323.006C473.396 323.115 473.534 323.225 473.67 323.336C473.795 323.438 473.917 323.541 474.04 323.644C474.169 323.751 474.298 323.858 474.425 323.967C474.568 324.09 474.709 324.215 474.851 324.34C474.955 324.431 475.06 324.523 475.163 324.616C475.312 324.75 475.46 324.885 475.607 325.021C475.703 325.109 475.798 325.197 475.893 325.286C476.043 325.427 476.19 325.57 476.338 325.713C476.434 325.806 476.53 325.899 476.625 325.993C476.749 326.116 476.871 326.239 476.993 326.363C477.111 326.482 477.228 326.601 477.344 326.722C477.456 326.837 477.566 326.953 477.675 327.07C477.8 327.203 477.924 327.336 478.047 327.47C478.143 327.574 478.237 327.679 478.331 327.784C478.457 327.923 478.581 328.063 478.705 328.205C478.809 328.324 478.912 328.444 479.015 328.564C479.122 328.689 479.229 328.815 479.334 328.941C479.449 329.078 479.563 329.217 479.676 329.356C479.768 329.469 479.859 329.582 479.95 329.696C480.072 329.85 480.193 330.004 480.313 330.16C480.393 330.262 480.472 330.365 480.551 330.468C480.667 330.622 480.782 330.776 480.896 330.931C480.99 331.058 481.083 331.186 481.176 331.314C481.27 331.444 481.362 331.576 481.455 331.707C481.549 331.841 481.642 331.975 481.735 332.11C481.838 332.26 481.94 332.411 482.041 332.562C482.122 332.683 482.202 332.805 482.281 332.927C482.381 333.079 482.479 333.232 482.577 333.386C482.656 333.512 482.736 333.638 482.814 333.765C482.913 333.925 483.011 334.086 483.108 334.248C483.182 334.37 483.255 334.493 483.327 334.616C483.417 334.77 483.507 334.924 483.595 335.079C483.677 335.223 483.758 335.368 483.838 335.513C483.917 335.655 483.995 335.797 484.072 335.94C484.151 336.086 484.228 336.233 484.306 336.381C484.384 336.53 484.462 336.679 484.538 336.829C484.612 336.974 484.685 337.12 484.757 337.266C484.834 337.421 484.91 337.577 484.985 337.733C485.048 337.865 485.11 337.997 485.171 338.13C485.252 338.304 485.333 338.478 485.411 338.653C485.473 338.789 485.533 338.926 485.592 339.063C485.66 339.217 485.728 339.372 485.793 339.528C485.858 339.68 485.92 339.834 485.983 339.987C486.051 340.152 486.118 340.318 486.183 340.484C486.236 340.62 486.288 340.755 486.34 340.891C486.407 341.066 486.473 341.241 486.537 341.416C486.584 341.545 486.631 341.673 486.676 341.802C486.745 341.994 486.812 342.186 486.877 342.379C486.918 342.498 486.957 342.618 486.997 342.737C487.059 342.928 487.122 343.119 487.182 343.311C487.223 343.443 487.263 343.576 487.303 343.708C487.361 343.901 487.419 344.095 487.475 344.289C487.508 344.403 487.539 344.518 487.571 344.632C487.628 344.839 487.684 345.047 487.738 345.255C487.771 345.38 487.802 345.505 487.833 345.629C487.881 345.819 487.928 346.009 487.973 346.199C488.009 346.35 488.042 346.501 488.076 346.653C488.116 346.829 488.156 347.006 488.193 347.184C488.222 347.32 488.248 347.457 488.275 347.593C488.316 347.795 488.356 347.997 488.394 348.2C488.418 348.334 488.441 348.469 488.464 348.603C488.496 348.786 488.528 348.97 488.558 349.154C488.582 349.303 488.603 349.452 488.626 349.601C488.655 349.799 488.685 349.996 488.711 350.194C488.727 350.312 488.74 350.43 488.755 350.548C488.782 350.764 488.809 350.98 488.833 351.196C488.847 351.323 488.859 351.449 488.872 351.576C488.891 351.775 488.912 351.974 488.929 352.174C488.944 352.354 488.957 352.535 488.97 352.715C488.981 352.871 488.994 353.027 489.004 353.183C489.017 353.405 489.027 353.627 489.037 353.85C489.042 353.963 489.048 354.076 489.052 354.189C489.059 354.368 489.062 354.548 489.067 354.728C489.071 354.904 489.076 355.08 489.078 355.256C489.08 355.409 489.078 355.562 489.078 355.716C489.078 355.905 489.079 356.095 489.076 356.285C489.075 356.4 489.071 356.515 489.068 356.631C489.063 356.867 489.057 357.102 489.048 357.339C489.046 357.396 489.043 357.453 489.04 357.511C488.998 358.482 488.923 359.457 488.812 360.434C488.796 360.573 488.777 360.711 488.76 360.85C488.604 362.101 488.394 363.356 488.121 364.612C487.949 365.406 487.751 366.19 487.536 366.963C487.467 367.212 487.398 367.46 487.325 367.706C487.307 367.764 487.288 367.821 487.271 367.879C487.187 368.157 487.101 368.433 487.012 368.708C487.001 368.741 486.99 368.774 486.979 368.807C486.885 369.092 486.789 369.376 486.689 369.659C486.629 369.828 486.566 369.997 486.504 370.165C486.447 370.32 486.392 370.475 486.333 370.628C486.272 370.791 486.207 370.951 486.144 371.113C486.084 371.263 486.026 371.414 485.965 371.564C485.887 371.754 485.806 371.943 485.725 372.132C485.67 372.261 485.616 372.39 485.56 372.518C485.479 372.704 485.394 372.889 485.31 373.073C485.259 373.184 485.21 373.297 485.158 373.408C485.077 373.581 484.994 373.753 484.91 373.925C484.831 374.089 484.753 374.252 484.672 374.414C484.603 374.551 484.533 374.687 484.463 374.823C484.388 374.969 484.313 375.115 484.237 375.26C484.147 375.43 484.055 375.599 483.963 375.767C483.888 375.905 483.812 376.042 483.735 376.178C483.65 376.33 483.564 376.48 483.477 376.63C483.401 376.76 483.326 376.891 483.25 377.02C483.158 377.175 483.065 377.329 482.971 377.482C482.884 377.625 482.795 377.769 482.706 377.911C482.624 378.04 482.542 378.169 482.459 378.298C482.362 378.449 482.265 378.599 482.166 378.749C482.078 378.882 481.989 379.014 481.9 379.146C481.798 379.296 481.696 379.444 481.593 379.592C481.505 379.718 481.417 379.843 481.327 379.968C481.226 380.109 481.125 380.25 481.022 380.389C480.922 380.526 480.821 380.662 480.719 380.797C480.618 380.932 480.515 381.066 480.411 381.2C480.316 381.324 480.22 381.447 480.123 381.569C480.025 381.694 479.925 381.818 479.826 381.942C479.707 382.088 479.588 382.233 479.468 382.378C479.38 382.484 479.29 382.589 479.201 382.695C479.085 382.832 478.968 382.968 478.85 383.103C478.732 383.238 478.613 383.373 478.494 383.506C478.387 383.625 478.28 383.744 478.172 383.862C478.077 383.965 477.982 384.067 477.887 384.169C477.754 384.312 477.621 384.454 477.486 384.594C477.369 384.715 477.251 384.835 477.133 384.955C477.039 385.05 476.947 385.146 476.853 385.24C476.71 385.382 476.565 385.522 476.42 385.662C476.313 385.766 476.207 385.87 476.098 385.973C475.953 386.111 475.805 386.246 475.658 386.382C475.571 386.461 475.487 386.542 475.4 386.62C475.268 386.739 475.135 386.856 475.001 386.973C474.869 387.091 474.736 387.208 474.602 387.324C474.5 387.411 474.396 387.497 474.293 387.584C474.159 387.696 474.027 387.81 473.892 387.921C473.766 388.024 473.639 388.125 473.512 388.227C473.37 388.341 473.228 388.455 473.085 388.567C473.041 388.602 472.997 388.635 472.953 388.67C472.744 388.831 472.534 388.992 472.323 389.15C472.237 389.214 472.15 389.276 472.064 389.339C471.881 389.473 471.698 389.608 471.513 389.739C471.127 390.012 470.736 390.277 470.341 390.537C469.822 390.879 469.295 391.209 468.761 391.528C468.574 391.64 468.387 391.752 468.198 391.861C468.116 391.908 468.033 391.954 467.951 392C467.754 392.112 467.556 392.224 467.356 392.333C467.259 392.386 467.16 392.437 467.062 392.49C466.869 392.593 466.676 392.696 466.481 392.796C466.34 392.869 466.198 392.94 466.056 393.011C465.912 393.083 465.769 393.157 465.624 393.227C465.465 393.304 465.305 393.378 465.145 393.453C464.996 393.524 464.847 393.595 464.697 393.664C464.558 393.727 464.419 393.789 464.28 393.85C464.125 393.919 463.971 393.988 463.816 394.054C463.691 394.108 463.566 394.16 463.441 394.212C463.25 394.291 463.06 394.37 462.868 394.447C462.726 394.504 462.582 394.559 462.439 394.614C462.285 394.674 462.132 394.734 461.978 394.792C461.814 394.854 461.648 394.913 461.483 394.973C461.342 395.024 461.201 395.075 461.06 395.124C460.891 395.183 460.721 395.238 460.552 395.295C460.398 395.346 460.245 395.397 460.091 395.447C459.956 395.49 459.822 395.532 459.687 395.574C459.503 395.631 459.318 395.687 459.133 395.742C458.986 395.785 458.838 395.826 458.69 395.868C458.514 395.918 458.337 395.967 458.16 396.015C458.015 396.054 457.869 396.092 457.723 396.129C457.558 396.171 457.392 396.214 457.226 396.254C457.069 396.292 456.912 396.329 456.754 396.365C456.583 396.405 456.411 396.444 456.239 396.481C456.081 396.516 455.922 396.55 455.764 396.582C455.595 396.617 455.425 396.65 455.255 396.683C455.091 396.714 454.927 396.746 454.762 396.776C454.618 396.802 454.473 396.826 454.328 396.851C454.139 396.883 453.949 396.914 453.759 396.943C453.595 396.969 453.43 396.992 453.266 397.016C453.118 397.037 452.971 397.058 452.823 397.077C452.638 397.102 452.452 397.125 452.266 397.147C452.099 397.167 451.932 397.185 451.765 397.203C451.623 397.218 451.482 397.231 451.34 397.245C451.142 397.264 450.943 397.282 450.744 397.298C450.597 397.31 450.45 397.32 450.302 397.33C450.13 397.342 449.958 397.355 449.786 397.365C449.598 397.375 449.411 397.384 449.223 397.392C449.069 397.399 448.914 397.406 448.759 397.411C448.574 397.417 448.389 397.421 448.203 397.424C448.053 397.427 447.903 397.431 447.753 397.432C447.565 397.434 447.377 397.432 447.188 397.431C447.03 397.43 446.871 397.43 446.712 397.428C446.541 397.425 446.371 397.419 446.2 397.414C446.026 397.409 445.852 397.405 445.678 397.398C445.488 397.39 445.299 397.379 445.11 397.369C444.968 397.361 444.827 397.354 444.685 397.344C444.46 397.33 444.235 397.312 444.01 397.293C443.883 397.283 443.757 397.274 443.63 397.262C443.432 397.244 443.234 397.222 443.035 397.201C442.887 397.186 442.739 397.172 442.591 397.155C442.445 397.138 442.299 397.118 442.153 397.099C441.852 397.061 441.55 397.02 441.248 396.975C440.658 396.887 440.067 396.79 439.476 396.676L438.42 396.458C434.214 395.538 430.295 394.014 426.733 391.999C416.071 385.966 408.618 375.523 406.278 363.642C372.431 362.124 345.509 356.241 321.851 342.416C303.399 331.633 287.382 316.281 271.673 295.317C281.029 320.567 312.97 336.684 329.85 356.858C334.997 363.01 339.594 370 342.774 377.377C345.891 384.61 348.113 393.253 352.871 399.566C355.872 403.549 360.325 406.199 363.767 409.752C365.496 411.537 366.88 413.632 366.675 416.206C366.519 418.176 365.154 419.314 363.626 420.335C355.964 425.447 343.682 428.879 334.85 433.059C328.709 435.965 322.96 439.576 316.858 442.546C301.953 449.798 285.184 452.294 268.886 448.927C262.271 447.56 256.17 444.223 249.517 443.095C249.309 443.06 249.099 443.032 248.89 443C243.904 444.779 238.913 446.635 233.844 448.167C213.406 454.341 190.879 453.373 171.882 443.059C145.964 428.985 140.996 408.55 122.173 389.78C110.822 378.461 96.7117 371.187 86.6576 358.355C79.5152 349.236 73.8163 338.529 70.6055 327.395C66.0088 311.451 66.5176 294.818 74.743 280.161C75.3949 278.998 76.0877 277.859 76.821 276.745C77.5543 275.632 78.3261 274.545 79.1364 273.487C79.9474 272.428 80.7949 271.399 81.6791 270.401C82.5632 269.403 83.4828 268.438 84.4364 267.506C85.3895 266.574 86.3752 265.676 87.3932 264.815C88.4108 263.953 89.4579 263.127 90.534 262.34C91.6106 261.552 92.7145 260.805 93.8446 260.097C94.9748 259.388 96.1294 258.72 97.3072 258.094C134.597 238.328 169.095 264.75 206.117 254.514C207.826 253.903 211.191 252.981 213.461 251.584C213.428 248.505 213.737 245.375 214.419 242.24L214.66 241.191C215.545 237.569 216.883 234.171 218.599 231.042C219.651 228.635 221.015 226.449 222.619 224.461C205.419 203.298 189.452 189.129 172.597 179.595C153.984 169.068 133.767 163.896 108.568 161.722C108.508 161.955 108.448 162.187 108.385 162.418C108.303 162.716 108.219 163.014 108.131 163.31C108.114 163.368 108.095 163.425 108.077 163.483C107.993 163.76 107.908 164.037 107.818 164.311C107.783 164.422 107.744 164.531 107.708 164.64C107.638 164.848 107.569 165.056 107.496 165.262C107.436 165.432 107.373 165.6 107.311 165.769C107.254 165.924 107.199 166.078 107.14 166.232C107.074 166.405 107.005 166.577 106.937 166.749C106.882 166.888 106.828 167.029 106.771 167.167C106.693 167.36 106.61 167.551 106.529 167.742C106.475 167.869 106.422 167.996 106.367 168.122C106.285 168.308 106.201 168.492 106.117 168.676C106.066 168.788 106.017 168.9 105.965 169.012C105.884 169.185 105.8 169.357 105.717 169.529C105.638 169.692 105.559 169.855 105.478 170.017C105.41 170.155 105.339 170.291 105.27 170.427C105.193 170.575 105.118 170.723 105.04 170.871C104.951 171.038 104.861 171.205 104.77 171.371C104.694 171.508 104.619 171.645 104.542 171.782C104.457 171.933 104.37 172.083 104.283 172.233C104.206 172.367 104.128 172.502 104.049 172.635C103.954 172.795 103.858 172.954 103.761 173.112C103.679 173.247 103.596 173.381 103.512 173.515C103.425 173.654 103.336 173.792 103.248 173.929C103.156 174.071 103.066 174.212 102.973 174.353C102.882 174.49 102.79 174.626 102.698 174.762C102.596 174.912 102.493 175.061 102.389 175.209C102.303 175.332 102.217 175.454 102.13 175.576C102.027 175.72 101.923 175.865 101.818 176.008C101.72 176.141 101.622 176.272 101.524 176.403C101.423 176.537 101.321 176.671 101.218 176.803C101.121 176.929 101.024 177.054 100.926 177.178C100.828 177.301 100.731 177.424 100.632 177.545C100.513 177.693 100.391 177.84 100.269 177.986C100.172 178.104 100.073 178.22 99.9746 178.336C99.869 178.46 99.7633 178.584 99.6564 178.707C99.5385 178.842 99.4197 178.976 99.3002 179.11C99.1935 179.229 99.0865 179.348 98.9784 179.466C98.8767 179.577 98.774 179.687 98.6712 179.797C98.5455 179.931 98.4198 180.065 98.2924 180.198C98.1759 180.319 98.0574 180.438 97.9394 180.558C97.8364 180.663 97.7339 180.768 97.6299 180.871C97.4965 181.004 97.362 181.135 97.2269 181.266C97.1198 181.37 97.0132 181.474 96.905 181.576C96.7842 181.691 96.6616 181.803 96.5394 181.917C96.4285 182.019 96.3184 182.123 96.2065 182.224C96.0742 182.344 95.9397 182.461 95.8059 182.579C95.6729 182.696 95.5404 182.814 95.4059 182.93C95.3047 183.017 95.2015 183.101 95.0995 183.187C94.966 183.3 94.8335 183.414 94.6987 183.525C94.5633 183.636 94.4257 183.744 94.289 183.854C94.1568 183.96 94.0253 184.067 93.8919 184.171C93.8016 184.241 93.7097 184.31 93.6188 184.38C93.4521 184.508 93.2858 184.637 93.1172 184.762C93.0108 184.841 92.9028 184.918 92.7957 184.997C92.6372 185.112 92.4795 185.229 92.3194 185.343C91.9093 185.633 91.4927 185.914 91.0725 186.19C90.5535 186.531 90.0266 186.858 89.493 187.176C89.3303 187.272 89.1684 187.37 89.0045 187.464C88.9226 187.512 88.8401 187.557 88.7579 187.604C88.5604 187.716 88.3625 187.828 88.1631 187.936C88.061 187.992 87.958 188.046 87.8555 188.101C87.6669 188.202 87.4781 188.302 87.288 188.4C87.1837 188.454 87.0788 188.506 86.974 188.559C86.7874 188.653 86.6004 188.747 86.4123 188.838C86.2596 188.913 86.1057 188.984 85.9521 189.057C85.8026 189.127 85.6537 189.199 85.5034 189.268C85.3564 189.335 85.2083 189.4 85.0605 189.465C84.9146 189.53 84.7692 189.595 84.6226 189.658C84.4674 189.725 84.311 189.788 84.155 189.853C83.9952 189.919 83.8355 189.986 83.6748 190.051C83.5323 190.108 83.3887 190.162 83.2454 190.218C83.092 190.277 82.939 190.338 82.7848 190.396C82.6203 190.457 82.455 190.517 82.2895 190.577C82.1488 190.627 82.008 190.678 81.8667 190.727C81.6978 190.786 81.5279 190.842 81.3583 190.899C81.2049 190.95 81.0516 191.001 80.8976 191.05C80.7632 191.093 80.6285 191.136 80.4935 191.178C80.3092 191.235 80.1246 191.291 79.9393 191.346C79.7923 191.389 79.6446 191.43 79.497 191.472C79.3205 191.521 79.1439 191.571 78.9667 191.618C78.8213 191.657 78.6757 191.695 78.5298 191.733C78.3542 191.778 78.1782 191.822 78.0017 191.865C77.855 191.9 77.708 191.935 77.5609 191.969C77.3893 192.008 77.2175 192.047 77.0453 192.085C76.8872 192.119 76.729 192.153 76.5704 192.186C76.4013 192.221 76.2318 192.254 76.0621 192.286C75.8928 192.319 75.7232 192.351 75.5533 192.381C75.414 192.406 75.2747 192.431 75.135 192.455C74.9455 192.487 74.7557 192.518 74.5656 192.547C74.4015 192.572 74.2371 192.596 74.0725 192.62C73.925 192.641 73.7774 192.661 73.6296 192.681C73.4443 192.705 73.2589 192.729 73.0731 192.75C72.9061 192.77 72.7389 192.789 72.5715 192.806C72.4301 192.821 72.2885 192.835 72.1468 192.848C71.9485 192.867 71.75 192.886 71.5511 192.902C71.4039 192.914 71.2564 192.924 71.1088 192.934C70.9368 192.946 70.7647 192.958 70.5923 192.968C70.4051 192.979 70.2177 192.988 70.03 192.996C69.8755 193.003 69.7209 193.01 69.566 193.015C69.3809 193.021 69.1955 193.025 69.01 193.028C68.8601 193.031 68.7102 193.035 68.5601 193.036C68.372 193.037 68.1837 193.036 67.9952 193.035C67.8365 193.034 67.6778 193.034 67.5188 193.031C67.3482 193.028 67.1774 193.023 67.0065 193.018C66.8317 193.013 66.6567 193.008 66.4816 193.001C66.2933 192.993 66.1049 192.983 65.9164 192.972C65.775 192.964 65.6335 192.957 65.4921 192.948C65.267 192.933 65.0418 192.915 64.8163 192.897C64.69 192.887 64.5635 192.877 64.437 192.866C64.2387 192.848 64.0404 192.826 63.8418 192.805C63.6938 192.789 63.5455 192.776 63.3973 192.759C63.2516 192.742 63.106 192.722 62.9601 192.703C62.7496 192.676 62.5386 192.651 62.3279 192.621C61.6471 192.524 60.9652 192.411 60.2829 192.28L59.2266 192.062C54.9981 191.136 51.0593 189.602 47.4825 187.571C34.2921 180.08 26.0274 165.835 26.31 150.477C26.3485 148.384 26.5464 146.272 26.9114 144.152C27.0153 143.549 27.1298 142.944 27.2611 142.34C27.4591 141.43 27.6884 140.533 27.942 139.65C28.0773 139.179 28.2174 138.711 28.3681 138.248C28.4526 137.989 28.5416 137.731 28.6308 137.474C28.6564 137.4 28.6802 137.326 28.7063 137.252C28.7471 137.137 28.791 137.023 28.8328 136.908C29.0297 136.366 29.2353 135.83 29.453 135.301C29.5014 135.183 29.5522 135.067 29.6016 134.95C29.6881 134.745 29.7734 134.54 29.8629 134.337C29.9345 134.175 30.0095 134.014 30.083 133.853C30.1494 133.708 30.2142 133.562 30.2821 133.418C30.3605 133.251 30.4425 133.086 30.523 132.921C30.5816 132.8 30.6381 132.679 30.6978 132.559L30.763 132.429C30.8305 132.294 30.9018 132.162 30.9707 132.029C31.0523 131.871 31.1328 131.713 31.2164 131.556C31.2796 131.438 31.3444 131.321 31.4086 131.203C31.5033 131.03 31.5974 130.856 31.6943 130.685C31.771 130.549 31.8503 130.415 31.9284 130.28C32.0201 130.122 32.1112 129.964 32.2049 129.807C32.295 129.656 32.3877 129.507 32.4797 129.357C32.56 129.227 32.6394 129.096 32.7211 128.966C32.8109 128.824 32.903 128.683 32.9944 128.542C33.0961 128.385 33.1974 128.228 33.3011 128.073C33.3938 127.934 33.4894 127.797 33.5837 127.659C33.677 127.523 33.7696 127.386 33.8644 127.251C33.9473 127.133 34.0316 127.017 34.1157 126.9C34.2253 126.747 34.3345 126.594 34.4461 126.444C34.5547 126.297 34.6657 126.151 34.7762 126.006C34.8603 125.895 34.9432 125.784 35.0283 125.674C35.1419 125.528 35.2579 125.384 35.3733 125.239C35.4766 125.109 35.5795 124.98 35.6842 124.852C35.7846 124.729 35.8867 124.607 35.9884 124.486C36.0947 124.359 36.2008 124.232 36.3086 124.106C36.4359 123.957 36.5648 123.81 36.6941 123.664C36.7806 123.566 36.8672 123.467 36.9546 123.37C37.0813 123.229 37.2096 123.09 37.3381 122.951C37.4447 122.835 37.5511 122.72 37.6589 122.606C37.7774 122.48 37.8972 122.356 38.0172 122.233C38.1214 122.125 38.2257 122.018 38.331 121.911C38.4644 121.777 38.5995 121.644 38.7347 121.511C38.8484 121.399 38.9625 121.288 39.0774 121.177C39.1996 121.06 39.3226 120.943 39.4462 120.827C39.5525 120.728 39.6589 120.628 39.7661 120.53C39.9106 120.397 40.0563 120.266 40.2026 120.136C40.3038 120.045 40.4051 119.955 40.5072 119.866C40.6455 119.745 40.7845 119.625 40.9243 119.506C41.0426 119.405 41.1609 119.304 41.2802 119.205C41.4108 119.096 41.5429 118.989 41.6748 118.882C41.8073 118.774 41.9398 118.667 42.0736 118.561C42.1921 118.467 42.3111 118.374 42.4306 118.281C42.5727 118.171 42.7153 118.062 42.8588 117.953C42.9802 117.862 43.102 117.771 43.2243 117.681C43.3661 117.576 43.5084 117.472 43.6514 117.37C43.7921 117.269 43.9336 117.169 44.0755 117.069C44.1983 116.983 44.322 116.899 44.4458 116.814C44.5819 116.721 44.7184 116.629 44.8556 116.537C45.0055 116.437 45.1559 116.338 45.3071 116.24C45.4406 116.153 45.5746 116.068 45.7091 115.983C45.8442 115.898 45.9796 115.813 46.1156 115.729C46.257 115.642 46.3991 115.556 46.5416 115.47C46.6937 115.379 46.8464 115.289 46.9997 115.199C47.1429 115.116 47.2869 115.034 47.4311 114.952C47.5613 114.878 47.6915 114.805 47.8224 114.732C47.9773 114.647 48.1324 114.561 48.2884 114.477C48.4287 114.402 48.5699 114.328 48.7111 114.255C48.8738 114.17 49.0366 114.085 49.2005 114.002C49.3261 113.939 49.4522 113.876 49.5785 113.814C49.7423 113.733 49.9069 113.654 50.0719 113.575C50.2238 113.503 50.376 113.431 50.5288 113.36C50.6687 113.296 50.8088 113.232 50.9494 113.169C51.1094 113.097 51.2703 113.027 51.4313 112.957C51.5731 112.896 51.7148 112.834 51.8574 112.774C52.0229 112.704 52.1891 112.636 52.3556 112.568C52.5033 112.509 52.6516 112.45 52.8001 112.392C52.9653 112.327 53.1313 112.264 53.2974 112.201C53.4363 112.149 53.5749 112.095 53.7145 112.044C53.8787 111.984 54.0437 111.926 54.2088 111.868C54.3697 111.812 54.5308 111.756 54.6925 111.701C54.8532 111.647 55.0143 111.594 55.1758 111.542C55.3212 111.495 55.4668 111.448 55.6128 111.403C55.7698 111.354 55.9274 111.307 56.085 111.26C56.2655 111.206 56.4459 111.152 56.6272 111.1C56.7467 111.066 56.8666 111.033 56.9865 111.001C57.1798 110.948 57.3733 110.895 57.5674 110.845C57.7033 110.81 57.8395 110.776 57.9758 110.742C58.1709 110.694 58.3661 110.646 58.5621 110.6C58.7063 110.566 58.8512 110.535 58.9959 110.503C59.1691 110.465 59.3422 110.426 59.516 110.39C59.6721 110.357 59.8285 110.327 59.9851 110.296C60.161 110.261 60.337 110.227 60.5135 110.195C60.6521 110.169 60.7911 110.146 60.93 110.122C61.1266 110.088 61.3231 110.054 61.5204 110.023C61.6594 110.001 61.7988 109.981 61.9382 109.96C62.1266 109.933 62.3151 109.905 62.5042 109.88C62.6739 109.857 62.8441 109.838 63.0143 109.817C63.1771 109.798 63.3399 109.777 63.5031 109.759C63.6596 109.742 63.8164 109.728 63.9733 109.713C64.1604 109.695 64.3475 109.675 64.5351 109.66C64.7016 109.646 64.8685 109.636 65.0355 109.624C65.1988 109.612 65.3621 109.599 65.5258 109.59C65.7167 109.578 65.9079 109.57 66.0992 109.562C66.2508 109.555 66.4024 109.546 66.5543 109.541C66.7298 109.535 66.9054 109.533 67.0812 109.529C67.254 109.525 67.4269 109.521 67.6001 109.519C67.7293 109.518 67.8586 109.519 67.9881 109.519C68.2081 109.52 68.4283 109.519 68.6488 109.522C68.747 109.524 68.8452 109.528 68.9435 109.53C69.1897 109.536 69.4361 109.543 69.6828 109.553C69.7634 109.556 69.844 109.561 69.9247 109.564C70.1916 109.577 70.4589 109.59 70.7265 109.608C70.7905 109.612 70.8544 109.618 70.9185 109.622C71.1939 109.642 71.4697 109.663 71.7457 109.688C71.9226 109.704 72.0992 109.725 72.2763 109.743C72.4447 109.76 72.6136 109.776 72.7822 109.795C72.8919 109.808 73.0014 109.823 73.1111 109.837C74.3918 109.995 75.6773 110.212 76.963 110.493C77.8551 110.689 78.7335 110.914 79.5991 111.162C79.7534 111.206 79.9081 111.249 80.0616 111.294C80.2384 111.347 80.4135 111.405 80.5891 111.46C80.7457 111.509 80.9028 111.556 81.0585 111.607C81.2462 111.668 81.4322 111.734 81.6185 111.797C81.7641 111.847 81.9102 111.895 82.0549 111.946C82.2272 112.007 82.3979 112.072 82.5689 112.136C82.724 112.193 82.8795 112.248 83.0336 112.307C83.2584 112.393 83.4811 112.484 83.7038 112.573C83.7959 112.61 83.8888 112.646 83.9806 112.683C84.1969 112.772 84.4113 112.865 84.6256 112.958C84.7302 113.003 84.8358 113.046 84.9399 113.092C85.1233 113.172 85.3045 113.257 85.4863 113.341C85.6226 113.403 85.7596 113.464 85.8951 113.527C86.0687 113.609 86.2403 113.695 86.4125 113.779C86.5432 113.843 86.6746 113.905 86.8044 113.97C86.9636 114.05 87.1212 114.132 87.2791 114.214C87.4341 114.294 87.5891 114.373 87.7429 114.456C87.8676 114.522 87.9911 114.591 88.115 114.658C88.2886 114.753 88.4623 114.848 88.6342 114.945C88.798 115.037 88.9598 115.133 89.122 115.228C89.242 115.298 89.3627 115.366 89.4818 115.437C89.6408 115.532 89.7983 115.63 89.9558 115.726C90.1003 115.815 90.2449 115.904 90.3882 115.994C90.5177 116.076 90.6458 116.16 90.7742 116.243C90.9221 116.339 91.0702 116.434 91.2167 116.532C91.3811 116.641 91.5436 116.753 91.7061 116.865C91.8155 116.94 91.9252 117.014 92.0338 117.09C92.209 117.213 92.3824 117.338 92.5555 117.463C92.6532 117.534 92.7514 117.604 92.8483 117.675C93.0051 117.791 93.1602 117.908 93.3152 118.026C93.4379 118.119 93.5605 118.212 93.6822 118.307C93.8107 118.407 93.938 118.508 94.0653 118.609C94.203 118.719 94.3408 118.828 94.477 118.94C94.6013 119.041 94.7238 119.145 94.8468 119.248C94.9754 119.355 95.1044 119.462 95.2315 119.571C95.3749 119.693 95.5161 119.819 95.6576 119.943C95.762 120.035 95.8666 120.127 95.97 120.219C96.119 120.353 96.2668 120.488 96.4138 120.624C96.5093 120.713 96.6051 120.8 96.6997 120.889C96.8495 121.031 96.9972 121.174 97.1448 121.317C97.2408 121.41 97.3368 121.503 97.4318 121.597C97.5555 121.719 97.6777 121.843 97.7998 121.967C97.9173 122.086 98.035 122.205 98.1511 122.325C98.2622 122.441 98.3722 122.557 98.482 122.674C98.6068 122.806 98.7311 122.939 98.8541 123.073C98.9495 123.177 99.0438 123.282 99.1381 123.387C99.2635 123.527 99.3878 123.667 99.5112 123.808C99.6155 123.927 99.7186 124.048 99.8215 124.168C99.9286 124.293 100.036 124.418 100.141 124.545C100.256 124.682 100.369 124.821 100.482 124.96C100.574 125.073 100.666 125.186 100.757 125.3C100.879 125.453 101 125.608 101.12 125.763C101.199 125.866 101.279 125.969 101.357 126.072C101.474 126.225 101.589 126.38 101.703 126.535C101.797 126.662 101.89 126.789 101.982 126.917C102.076 127.048 102.169 127.179 102.262 127.311C102.356 127.444 102.449 127.578 102.541 127.713C102.644 127.863 102.746 128.014 102.848 128.166C102.928 128.287 103.009 128.408 103.088 128.53C103.188 128.683 103.286 128.836 103.383 128.99C103.463 129.116 103.543 129.242 103.621 129.369C103.72 129.529 103.818 129.69 103.915 129.851C103.989 129.974 104.061 130.096 104.134 130.22C104.224 130.374 104.314 130.528 104.402 130.683C104.484 130.827 104.565 130.972 104.645 131.117C104.724 131.259 104.801 131.401 104.879 131.544C104.957 131.69 105.035 131.837 105.112 131.984C105.19 132.133 105.269 132.283 105.345 132.433C105.419 132.578 105.492 132.724 105.564 132.87C105.64 133.025 105.717 133.18 105.792 133.337C105.855 133.469 105.916 133.601 105.978 133.734C106.059 133.907 106.139 134.082 106.218 134.257C106.279 134.393 106.339 134.529 106.399 134.666C106.467 134.821 106.534 134.976 106.6 135.132C106.664 135.284 106.727 135.437 106.79 135.591C106.857 135.756 106.924 135.922 106.99 136.088C107.043 136.223 107.095 136.359 107.147 136.495C107.214 136.669 107.28 136.844 107.344 137.02C107.391 137.148 107.437 137.277 107.483 137.406C107.551 137.598 107.619 137.79 107.684 137.982C107.725 138.102 107.764 138.221 107.803 138.341C107.866 138.532 107.929 138.723 107.989 138.915C108.03 139.047 108.07 139.179 108.11 139.312C108.168 139.505 108.226 139.698 108.282 139.893C108.314 140.007 108.345 140.121 108.377 140.236C108.435 140.443 108.491 140.651 108.545 140.859C108.578 140.983 108.609 141.108 108.64 141.233C108.687 141.423 108.735 141.612 108.78 141.803C108.816 141.953 108.849 142.105 108.883 142.256C108.923 142.433 108.962 142.61 109 142.787C109.028 142.924 109.055 143.06 109.082 143.197C109.122 143.399 109.163 143.601 109.2 143.804C109.225 143.938 109.247 144.072 109.271 144.207C109.303 144.39 109.335 144.573 109.365 144.757C109.388 144.906 109.41 145.056 109.432 145.205C109.462 145.402 109.491 145.599 109.518 145.797C109.526 145.854 109.533 145.911 109.54 145.968C136.343 148.248 159.082 153.833 180.357 165.866C199.137 176.489 216.363 191.9 234.184 213.681C235.013 211.035 234.686 206.97 234.688 204.957C231.891 166.653 195.412 143.041 201.503 101.282C201.697 99.9625 201.939 98.651 202.227 97.3485C202.514 96.0461 202.848 94.755 203.228 93.4764C203.608 92.1985 204.033 90.9356 204.503 89.6879C204.973 88.4395 205.487 87.2094 206.045 85.9986C206.602 84.7872 207.203 83.5973 207.846 82.4291C208.489 81.261 209.174 80.1172 209.898 78.9978C210.623 77.879 211.387 76.7868 212.189 75.7221C212.992 74.6573 213.833 73.6229 214.709 72.6183C225.752 59.9479 241.25 53.8795 257.813 52.8521C269.38 52.1351 281.381 53.9054 292.37 57.5685C307.836 62.7257 319.428 73.5696 333.904 80.4573ZM246.409 292.015C240.566 290.659 235.898 288.96 230.512 286.289C228.227 290.638 226.77 295.717 223.874 299.69C223.76 299.951 223.652 300.215 223.533 300.474C222.161 303.47 219.911 306.262 217.91 308.862C209.537 319.737 199.667 328.097 187.336 334.207C179.778 337.951 171.262 340.07 163.96 344.119C146.437 353.835 144.131 373.442 150.172 391.134C155.494 406.717 168.75 420.625 183.432 427.847C198.704 435.36 215.899 434.448 231.662 429.093C232.091 428.947 232.519 428.794 232.944 428.637C222.166 417.373 216.524 405.192 216.922 389.431C217.232 377.157 221.447 365.812 227.157 355.077C236.142 338.183 249.568 323.954 248.561 303.531C248.374 299.735 247.924 295.524 246.409 292.015ZM213.268 275.003C210.197 275.561 207.158 276.095 204.049 276.391C193.6 277.711 183.327 277.476 172.887 276.089C163.594 274.854 154.505 272.375 145.234 271.127C126.766 268.643 105.004 271.145 92.8678 286.916C86.4007 295.321 84.5275 305.781 85.9866 316.149C88.4594 333.711 100.132 348.114 114.036 358.483C118.354 361.703 123.015 364.545 127.511 367.511C130.062 352.483 136.157 339.778 148.877 330.787C155.002 326.459 161.821 323.87 168.736 321.119C191.282 312.147 197.892 305.161 209.264 284.646C210.711 281.479 212.045 278.264 213.268 275.003ZM266.935 323.359C263.226 328.638 260.952 334.757 257.575 340.239C245.976 359.07 232.458 376.909 236.646 400.376C236.721 400.796 236.802 401.216 236.887 401.633C240.845 413.012 249.228 420.8 259.98 425.946C260.787 426.339 261.603 426.711 262.428 427.063C263.253 427.416 264.087 427.749 264.928 428.06C265.769 428.371 266.618 428.661 267.474 428.929C268.33 429.198 269.193 429.446 270.061 429.672C270.929 429.898 271.802 430.102 272.68 430.284C273.559 430.466 274.441 430.628 275.327 430.766C276.213 430.905 277.103 431.021 277.995 431.115C278.886 431.209 279.78 431.281 280.676 431.331C281.571 431.38 282.468 431.408 283.364 431.413C284.261 431.419 285.158 431.401 286.053 431.361C286.949 431.322 287.843 431.261 288.736 431.177C289.628 431.093 290.518 430.987 291.406 430.858C292.293 430.729 293.176 430.579 294.056 430.406C294.935 430.234 295.81 430.04 296.68 429.824C297.55 429.608 298.415 429.371 299.273 429.112C300.131 428.853 300.982 428.572 301.826 428.271C314.638 423.619 326.798 416.201 339.206 410.499C329.057 399.024 326.565 383.246 317.196 371.057C302.764 352.958 282.274 340.801 266.935 323.359ZM271.68 229.893C268.618 227.527 264.996 225.785 260.966 224.903C246.437 221.723 232.1 230.909 228.944 245.42C228.635 246.841 228.446 248.26 228.368 249.667C228.189 258.422 232.36 267.085 240.204 272.299C252.389 280.399 268.821 277.108 276.905 264.947C284.478 253.555 282.038 238.42 271.68 229.893ZM390.344 125.36C378.608 113.959 361.053 106.147 344.587 106.37C325.891 106.625 308.197 115.385 304.931 135.152C303.57 143.388 304.436 152.121 303.448 160.496C301.836 174.162 297.276 186.265 289.845 197.804C288.068 200.563 286.193 203.619 283.833 205.918C283.629 206.118 283.416 206.308 283.209 206.502C281.125 209.558 278.179 212.057 275.429 214.645C281.904 218.221 287.22 223.412 290.96 229.569C292.386 229.251 293.785 228.865 295.12 228.462C314.698 222.548 323.591 205.124 336.485 190.987C344.679 182.003 353.95 174.221 365.407 169.806C380.12 164.136 393.49 165.357 407.722 171.722C407.727 171.269 407.727 170.816 407.72 170.362C407.469 153.719 402.551 137.218 390.344 125.36ZM301.69 83.3087C287.251 73.698 269.761 67.5444 252.387 71.1159C242.13 73.2253 232.907 78.5036 227.163 87.4176C216.384 104.146 221.338 125.48 229.882 142.038C234.173 150.35 239.561 158.076 243.847 166.413C248.661 175.78 252.334 185.375 254.602 195.66C255.367 198.687 255.884 201.729 256.391 204.808C259.052 202.561 261.632 200.224 264.129 197.797C279.633 180.195 283.994 171.623 284.87 147.376C285.139 139.939 285.287 132.648 287.306 125.426C291.501 110.426 301.422 100.417 314.721 92.9656C310.417 89.7275 306.173 86.2932 301.69 83.3087ZM414.269 198.09C405.81 189.692 395.657 184.414 383.61 184.509C383.188 184.569 382.765 184.635 382.344 184.704C358.831 188.645 346.569 207.37 332.727 224.619C328.698 229.641 323.698 233.838 319.971 239.105C341.554 247.691 359.89 262.903 381.788 270.414C396.418 275.142 412.117 272.187 426.336 277.89C427.539 264.289 430.442 250.345 430.519 236.717C430.52 235.821 430.498 234.924 430.453 234.029C430.409 233.135 430.342 232.241 430.253 231.35C430.164 230.458 430.053 229.568 429.92 228.683C429.787 227.796 429.632 226.913 429.455 226.035C429.278 225.156 429.079 224.282 428.858 223.413C428.638 222.544 428.395 221.681 428.131 220.825C427.867 219.968 427.582 219.118 427.276 218.275C426.97 217.432 426.643 216.596 426.296 215.77C425.948 214.943 425.58 214.126 425.191 213.318C424.803 212.51 424.394 211.711 423.966 210.923C423.538 210.135 423.09 209.358 422.623 208.593C422.156 207.827 421.671 207.073 421.166 206.331C420.662 205.59 420.139 204.861 419.598 204.145C419.058 203.429 418.499 202.727 417.923 202.038C417.347 201.351 416.754 200.677 416.145 200.019C415.536 199.36 414.911 198.717 414.269 198.09Z" fill="#4AE84F"/>
</g>
<defs>
<clipPath id="clip0_3764_7232">
<rect width="512" height="512" fill="white"/>
</clipPath>
</defs>
</svg>
