<svg width="184" height="68" viewBox="0 0 184 68" fill="none" xmlns="http://www.w3.org/2000/svg">
<path d="M0 8C0 3.58172 3.58172 0 8 0H159.615C172.869 0 183.615 10.7452 183.615 24V59.3102C183.615 63.7284 180.033 67.3102 175.615 67.3102H24C10.7451 67.3102 0 56.565 0 43.3102V8Z" fill="#0A1019"/>
<path d="M74.0719 25.1937C73.2026 25.1937 72.454 24.9884 71.8262 24.5779C71.1983 24.1674 70.7154 23.602 70.3773 22.8816C70.0392 22.1612 69.8702 21.3381 69.8702 20.4125C69.8702 19.4707 70.0433 18.6396 70.3894 17.9192C70.7395 17.1948 71.2265 16.6293 71.8503 16.2228C72.4782 15.8123 73.2106 15.6071 74.0478 15.6071C74.6997 15.6071 75.2873 15.7278 75.8105 15.9693C76.3337 16.2108 76.7624 16.5488 77.0964 16.9835C77.4304 17.4181 77.6377 17.9252 77.7182 18.5048H76.2935C76.1848 18.0822 75.9434 17.7079 75.5691 17.3819C75.1988 17.0519 74.6997 16.8869 74.0719 16.8869C73.5165 16.8869 73.0295 17.0318 72.611 17.3215C72.1964 17.6073 71.8724 18.0118 71.639 18.535C71.4096 19.0541 71.2949 19.6639 71.2949 20.3642C71.2949 21.0805 71.4076 21.7044 71.633 22.2356C71.8624 22.7669 72.1844 23.1794 72.5989 23.4732C73.0175 23.767 73.5085 23.9139 74.0719 23.9139C74.4422 23.9139 74.7782 23.8495 75.0801 23.7207C75.3819 23.5919 75.6375 23.4068 75.8468 23.1653C76.056 22.9238 76.205 22.634 76.2935 22.296H77.7182C77.6377 22.8433 77.4385 23.3363 77.1206 23.775C76.8066 24.2097 76.3901 24.5558 75.8709 24.8134C75.3558 25.0669 74.7561 25.1937 74.0719 25.1937Z" fill="#73EC8A"/>
<path d="M79.8009 25.0005V15.7278H81.1774V17.1284H81.274C81.443 16.6696 81.7489 16.2973 82.1916 16.0115C82.6343 15.7258 83.1333 15.5829 83.6887 15.5829C83.7934 15.5829 83.9242 15.5849 84.0811 15.5889C84.2381 15.593 84.3568 15.599 84.4373 15.6071V17.0559C84.389 17.0438 84.2783 17.0257 84.1053 17.0016C83.9363 16.9734 83.7572 16.9593 83.568 16.9593C83.1172 16.9593 82.7148 17.0539 82.3606 17.2431C82.0105 17.4282 81.7328 17.6858 81.5275 18.0158C81.3263 18.3418 81.2257 18.7141 81.2257 19.1326V25.0005H79.8009Z" fill="#73EC8A"/>
<path d="M89.7317 25.1937C88.8382 25.1937 88.0675 24.9965 87.4196 24.6021C86.7756 24.2036 86.2786 23.6483 85.9284 22.9359C85.5823 22.2195 85.4093 21.3864 85.4093 20.4366C85.4093 19.4868 85.5823 18.6497 85.9284 17.9252C86.2786 17.1968 86.7656 16.6293 87.3894 16.2228C88.0172 15.8123 88.7497 15.6071 89.5868 15.6071C90.0698 15.6071 90.5467 15.6875 91.0176 15.8485C91.4885 16.0095 91.9171 16.2711 92.3034 16.6333C92.6898 16.9915 92.9977 17.4664 93.2271 18.0581C93.4565 18.6497 93.5712 19.3781 93.5712 20.2434V20.8471H86.4235V19.6156H92.1223C92.1223 19.0924 92.0177 18.6255 91.8084 18.215C91.6032 17.8045 91.3094 17.4805 90.927 17.2431C90.5487 17.0056 90.102 16.8869 89.5868 16.8869C89.0193 16.8869 88.5283 17.0277 88.1138 17.3095C87.7033 17.5872 87.3874 17.9494 87.166 18.3961C86.9447 18.8429 86.834 19.3218 86.834 19.8329V20.6539C86.834 21.3542 86.9547 21.9478 87.1962 22.4348C87.4417 22.9178 87.7818 23.286 88.2164 23.5396C88.6511 23.7891 89.1562 23.9139 89.7317 23.9139C90.106 23.9139 90.4441 23.8616 90.7459 23.7569C91.0518 23.6483 91.3154 23.4873 91.5367 23.274C91.7581 23.0566 91.9292 22.787 92.0499 22.465L93.4263 22.8514C93.2814 23.3182 93.0379 23.7287 92.6958 24.0829C92.3537 24.4331 91.9312 24.7067 91.4281 24.9039C90.925 25.0971 90.3595 25.1937 89.7317 25.1937Z" fill="#73EC8A"/>
<path d="M98.4671 25.2179C97.8796 25.2179 97.3463 25.1072 96.8674 24.8858C96.3884 24.6604 96.0081 24.3365 95.7264 23.9139C95.4447 23.4873 95.3038 22.9721 95.3038 22.3684C95.3038 21.8372 95.4084 21.4065 95.6177 21.0765C95.827 20.7425 96.1067 20.4809 96.4568 20.2917C96.807 20.1026 97.1934 19.9617 97.6159 19.8691C98.0425 19.7725 98.4712 19.6961 98.9018 19.6397C99.4652 19.5673 99.922 19.513 100.272 19.4767C100.626 19.4365 100.884 19.3701 101.045 19.2775C101.21 19.1849 101.292 19.024 101.292 18.7946V18.7463C101.292 18.1506 101.129 17.6878 100.803 17.3578C100.481 17.0277 99.9925 16.8627 99.3365 16.8627C98.6563 16.8627 98.123 17.0117 97.7367 17.3095C97.3503 17.6073 97.0787 17.9252 96.9217 18.2633L95.5694 17.7804C95.8109 17.2169 96.1329 16.7782 96.5353 16.4643C96.9418 16.1464 97.3845 15.925 97.8634 15.8002C98.3464 15.6715 98.8213 15.6071 99.2882 15.6071C99.586 15.6071 99.9281 15.6433 100.314 15.7157C100.705 15.7841 101.081 15.927 101.443 16.1443C101.81 16.3617 102.113 16.6897 102.355 17.1284C102.596 17.567 102.717 18.1546 102.717 18.8911V25.0005H101.292V23.7448H101.22C101.123 23.9461 100.962 24.1614 100.737 24.3908C100.512 24.6202 100.212 24.8154 99.8375 24.9764C99.4632 25.1374 99.0064 25.2179 98.4671 25.2179ZM98.6845 23.938C99.2479 23.938 99.7228 23.8273 100.109 23.606C100.5 23.3846 100.793 23.0989 100.991 22.7487C101.192 22.3986 101.292 22.0304 101.292 21.644V20.34C101.232 20.4125 101.099 20.4789 100.894 20.5392C100.693 20.5956 100.459 20.6459 100.194 20.6902C99.9321 20.7304 99.6765 20.7666 99.427 20.7988C99.1815 20.827 98.9823 20.8511 98.8294 20.8713C98.4591 20.9196 98.113 20.998 97.791 21.1067C97.4731 21.2113 97.2155 21.3703 97.0183 21.5836C96.8251 21.7929 96.7285 22.0786 96.7285 22.4409C96.7285 22.9359 96.9116 23.3102 97.2779 23.5637C97.6481 23.8133 98.117 23.938 98.6845 23.938Z" fill="#73EC8A"/>
<path d="M109.35 15.7278V16.9352H104.545V15.7278H109.35ZM105.945 13.5062H107.37V22.3443C107.37 22.7467 107.428 23.0486 107.545 23.2498C107.666 23.447 107.819 23.5798 108.004 23.6483C108.193 23.7126 108.392 23.7448 108.602 23.7448C108.759 23.7448 108.887 23.7368 108.988 23.7207C109.089 23.7006 109.169 23.6845 109.229 23.6724L109.519 24.9522C109.423 24.9884 109.288 25.0247 109.115 25.0609C108.942 25.1011 108.722 25.1213 108.457 25.1213C108.054 25.1213 107.66 25.0347 107.274 24.8617C106.891 24.6886 106.573 24.425 106.32 24.0708C106.07 23.7167 105.945 23.2699 105.945 22.7306V13.5062Z" fill="#73EC8A"/>
<path d="M115.282 25.1937C114.388 25.1937 113.617 24.9965 112.969 24.6021C112.325 24.2036 111.828 23.6483 111.478 22.9359C111.132 22.2195 110.959 21.3864 110.959 20.4366C110.959 19.4868 111.132 18.6497 111.478 17.9252C111.828 17.1968 112.315 16.6293 112.939 16.2228C113.567 15.8123 114.299 15.6071 115.137 15.6071C115.62 15.6071 116.096 15.6875 116.567 15.8485C117.038 16.0095 117.467 16.2711 117.853 16.6333C118.24 16.9915 118.547 17.4664 118.777 18.0581C119.006 18.6497 119.121 19.3781 119.121 20.2434V20.8471H111.973V19.6156H117.672C117.672 19.0924 117.567 18.6255 117.358 18.215C117.153 17.8045 116.859 17.4805 116.477 17.2431C116.099 17.0056 115.652 16.8869 115.137 16.8869C114.569 16.8869 114.078 17.0277 113.664 17.3095C113.253 17.5872 112.937 17.9494 112.716 18.3961C112.494 18.8429 112.384 19.3218 112.384 19.8329V20.6539C112.384 21.3542 112.505 21.9478 112.746 22.4348C112.991 22.9178 113.332 23.286 113.766 23.5396C114.201 23.7891 114.706 23.9139 115.282 23.9139C115.656 23.9139 115.994 23.8616 116.296 23.7569C116.602 23.6483 116.865 23.4873 117.087 23.274C117.308 23.0566 117.479 22.787 117.6 22.465L118.976 22.8514C118.831 23.3182 118.588 23.7287 118.246 24.0829C117.904 24.4331 117.481 24.7067 116.978 24.9039C116.475 25.0971 115.909 25.1937 115.282 25.1937Z" fill="#73EC8A"/>
<path d="M124.79 25.1937C124.017 25.1937 123.335 24.9985 122.743 24.6081C122.152 24.2137 121.689 23.6583 121.355 22.9419C121.021 22.2215 120.854 21.3703 120.854 20.3883C120.854 19.4143 121.021 18.5692 121.355 17.8528C121.689 17.1364 122.154 16.583 122.749 16.1926C123.345 15.8023 124.033 15.6071 124.814 15.6071C125.418 15.6071 125.894 15.7077 126.245 15.9089C126.599 16.1061 126.868 16.3315 127.054 16.585C127.243 16.8346 127.39 17.0398 127.494 17.2008H127.615V12.6369H129.04V25.0005H127.663V23.5758H127.494C127.39 23.7448 127.241 23.9581 127.047 24.2157C126.854 24.4693 126.579 24.6967 126.22 24.8979C125.862 25.0951 125.385 25.1937 124.79 25.1937ZM124.983 23.9139C125.554 23.9139 126.037 23.765 126.432 23.4671C126.826 23.1653 127.126 22.7487 127.331 22.2175C127.536 21.6822 127.639 21.0644 127.639 20.3642C127.639 19.6719 127.538 19.0662 127.337 18.547C127.136 18.0238 126.838 17.6174 126.444 17.3276C126.049 17.0338 125.562 16.8869 124.983 16.8869C124.379 16.8869 123.876 17.0418 123.474 17.3517C123.075 17.6576 122.775 18.0742 122.574 18.6014C122.377 19.1246 122.278 19.7122 122.278 20.3642C122.278 21.0242 122.379 21.6239 122.58 22.1632C122.785 22.6984 123.087 23.1251 123.486 23.443C123.888 23.7569 124.387 23.9139 124.983 23.9139Z" fill="#73EC8A"/>
<path d="M140.395 25.1937C139.558 25.1937 138.824 24.9945 138.192 24.596C137.564 24.1976 137.073 23.6402 136.719 22.9238C136.369 22.2074 136.193 21.3703 136.193 20.4125C136.193 19.4465 136.369 18.6034 136.719 17.883C137.073 17.1626 137.564 16.6032 138.192 16.2047C138.824 15.8063 139.558 15.6071 140.395 15.6071C141.232 15.6071 141.965 15.8063 142.593 16.2047C143.224 16.6032 143.715 17.1626 144.066 17.883C144.42 18.6034 144.597 19.4465 144.597 20.4125C144.597 21.3703 144.42 22.2074 144.066 22.9238C143.715 23.6402 143.224 24.1976 142.593 24.596C141.965 24.9945 141.232 25.1937 140.395 25.1937ZM140.395 23.9139C141.031 23.9139 141.554 23.7509 141.965 23.4249C142.375 23.0989 142.679 22.6703 142.876 22.139C143.074 21.6078 143.172 21.0322 143.172 20.4125C143.172 19.7927 143.074 19.2151 142.876 18.6799C142.679 18.1446 142.375 17.7119 141.965 17.3819C141.554 17.0519 141.031 16.8869 140.395 16.8869C139.759 16.8869 139.236 17.0519 138.826 17.3819C138.415 17.7119 138.111 18.1446 137.914 18.6799C137.717 19.2151 137.618 19.7927 137.618 20.4125C137.618 21.0322 137.717 21.6078 137.914 22.139C138.111 22.6703 138.415 23.0989 138.826 23.4249C139.236 23.7509 139.759 23.9139 140.395 23.9139Z" fill="#73EC8A"/>
<path d="M148.196 19.4224V25.0005H146.772V15.7278H148.148V17.1767H148.269C148.486 16.7058 148.816 16.3275 149.259 16.0417C149.702 15.7519 150.273 15.6071 150.973 15.6071C151.601 15.6071 152.151 15.7358 152.621 15.9934C153.092 16.247 153.459 16.6333 153.72 17.1525C153.982 17.6677 154.113 18.3197 154.113 19.1085V25.0005H152.688V19.2051C152.688 18.4766 152.499 17.9091 152.12 17.5027C151.742 17.0921 151.223 16.8869 150.563 16.8869C150.108 16.8869 149.702 16.9855 149.343 17.1827C148.989 17.3799 148.71 17.6677 148.504 18.046C148.299 18.4243 148.196 18.8831 148.196 19.4224Z" fill="#73EC8A"/>
<path fill-rule="evenodd" clip-rule="evenodd" d="M151.186 28.6354C153.316 28.6354 155.063 29.0825 156.426 29.9772C157.609 30.7332 158.603 31.6626 159.409 32.7643V29.274H161.794V48.7018C161.794 51.9965 160.906 54.5883 159.131 56.4772C157.356 58.366 154.679 59.3102 151.1 59.3102C149.864 59.3101 148.572 59.183 147.223 58.9273C145.888 58.6717 144.581 58.2455 143.303 57.649L144.156 55.3912C145.334 55.9451 146.52 56.3495 147.713 56.6051C148.92 56.8749 150.064 57.0094 151.143 57.0094C153.813 57.0094 155.858 56.314 157.278 54.9225C158.698 53.5449 159.409 51.7691 159.409 49.5963V46.2291C158.603 47.3219 157.609 48.2528 156.426 49.0211C155.063 49.9157 153.316 50.3638 151.186 50.3639C149.041 50.3639 147.159 49.8731 145.54 48.8932C143.921 47.8991 142.657 46.5786 141.748 44.9313C141.531 44.5302 141.34 44.1192 141.175 43.6988V49.7242H138.788V47.0397C137.837 48.2325 136.758 49.085 135.551 49.5963C134.358 50.1076 133.122 50.3629 131.844 50.3629C130.055 50.3629 128.571 49.9939 127.392 49.2555C126.213 48.5028 125.333 47.5649 124.75 46.443C124.168 45.3212 123.877 44.185 123.877 43.0348V29.274H126.263V42.3111C126.263 44.0151 126.803 45.3994 127.882 46.4645C128.961 47.5295 130.424 48.062 132.27 48.0621C133.463 48.0621 134.55 47.7859 135.53 47.232C136.524 46.6782 137.312 45.9038 137.894 44.9098C138.49 43.9015 138.788 42.7364 138.788 41.4156V29.274H141.175V35.3189C141.7 34.0003 142.439 32.845 143.389 31.8522C144.341 30.8438 145.476 30.055 146.797 29.4869C148.118 28.9189 149.581 28.6354 151.186 28.6354ZM151.186 30.9361C149.581 30.9361 148.161 31.2833 146.925 31.9791C145.69 32.675 144.716 33.6692 144.006 34.9615C143.31 36.2397 142.962 37.7528 142.962 39.4996C142.962 41.2462 143.31 42.7587 144.006 44.0367C144.716 45.3149 145.69 46.3091 146.925 47.0191C148.161 47.715 149.581 48.0631 151.186 48.0631C152.79 48.063 154.21 47.7149 155.446 47.0191C156.681 46.3091 157.647 45.3149 158.343 44.0367C159.053 42.7587 159.408 41.2463 159.409 39.4996C159.409 37.7528 159.053 36.2397 158.343 34.9615C157.647 33.6693 156.681 32.6749 155.446 31.9791C154.21 31.2834 152.79 30.9362 151.186 30.9361Z" fill="white"/>
<path fill-rule="evenodd" clip-rule="evenodd" d="M30.6771 8.12071C32.7422 7.7929 34.8171 8.10975 36.5277 9.35508C36.6634 9.45379 36.7958 9.55757 36.9242 9.66563C37.0524 9.77368 37.1769 9.88675 37.2972 10.0035C37.4173 10.1202 37.5335 10.2409 37.6449 10.3658C37.7564 10.4908 37.863 10.62 37.9652 10.7525C38.0675 10.8852 38.1656 11.0221 38.2581 11.1617C38.3507 11.3012 38.4376 11.4439 38.5199 11.5895C38.6021 11.7352 38.6797 11.8836 38.7513 12.0348C38.8229 12.186 38.8889 12.3398 38.9495 12.4957C40.8609 17.4298 37.033 21.3125 37.7552 26.068C37.793 26.2335 37.8389 26.5178 37.9183 26.777C38.2569 26.8452 38.5851 26.9429 38.8988 27.068C38.9502 27.0372 39.0015 27.0054 39.0521 26.9713C39.7879 26.4746 40.4459 25.8486 41.1253 25.2779C42.4136 24.1961 43.7624 23.1954 44.8441 21.8941C44.98 21.7303 45.1098 21.5619 45.2327 21.3883C45.3556 21.2146 45.472 21.0356 45.5814 20.8531C45.6903 20.6708 45.7923 20.4846 45.887 20.2945C45.9818 20.1043 46.0689 19.9104 46.1488 19.7135C46.584 18.6419 46.7329 17.535 46.7249 16.3863C45.3962 16.19 44.3077 15.7689 43.4788 14.6666C43.4394 14.6135 43.4012 14.5594 43.3646 14.5045C43.3279 14.4497 43.293 14.3939 43.2591 14.3375C43.2253 14.2809 43.1926 14.2229 43.1615 14.1647C43.1305 14.1065 43.1006 14.0475 43.0726 13.9879C43.0444 13.9281 43.0175 13.8673 42.9925 13.8063C42.9674 13.7453 42.9432 13.6838 42.9212 13.6217C42.8992 13.5596 42.8794 13.4964 42.8607 13.4332C42.8418 13.3701 42.8246 13.3066 42.8089 13.2428C42.7932 13.1787 42.7785 13.1141 42.766 13.0494C42.7535 12.9847 42.7431 12.9194 42.7337 12.8541C42.7246 12.7889 42.7164 12.7234 42.7103 12.6578C42.7044 12.5923 42.7003 12.5263 42.6976 12.4606C42.6948 12.3949 42.694 12.329 42.6947 12.2633C42.6952 12.1974 42.6976 12.1308 42.7015 12.065C42.7053 11.9995 42.71 11.934 42.7171 11.8688C42.7243 11.8033 42.7331 11.7376 42.7435 11.6725C42.9136 10.5536 43.5098 9.64006 44.4232 8.97325C45.2082 8.40036 46.3726 8.06784 47.3421 8.23496C48.5068 8.43588 49.5691 9.05856 50.2347 10.0387C50.2725 10.0933 50.3089 10.1493 50.3441 10.2057C50.3792 10.2622 50.4133 10.3194 50.4456 10.3775C50.4778 10.4357 50.509 10.4947 50.5384 10.5543C50.5679 10.6141 50.596 10.6749 50.6224 10.7359C50.6487 10.797 50.6732 10.8591 50.6966 10.9215C50.72 10.9838 50.7419 11.0466 50.762 11.11C50.7823 11.1732 50.8016 11.2371 50.8187 11.3014C50.8357 11.3656 50.8508 11.4307 50.8646 11.4957C50.8784 11.5608 50.8911 11.6263 50.9017 11.692C50.9124 11.7576 50.9207 11.8241 50.9281 11.8902C50.9355 11.9562 50.9416 12.0222 50.9456 12.0885C50.9497 12.1547 50.9526 12.2213 50.9534 12.2877C50.9541 12.3542 50.9529 12.4214 50.9505 12.4879C50.948 12.5543 50.9436 12.6209 50.9378 12.6871C50.932 12.7533 50.9244 12.8195 50.9154 12.8854C50.9063 12.951 50.8954 13.0165 50.8831 13.0816C50.7872 13.5686 50.5927 14.2719 50.2913 14.6725C49.9939 15.0678 49.425 15.3312 49.2796 15.817C49.1567 16.2287 49.1996 16.7414 49.1634 17.1715C49.0863 18.0863 48.9182 19.0185 48.6156 19.8873C47.5044 23.0765 45.0438 25.0606 42.5286 27.1324C42.0192 27.552 41.4402 27.9908 40.9583 28.482C41.6246 29.2 42.105 30.0901 42.3255 31.0758C44.4695 31.1373 46.6754 31.1731 48.3284 29.5846C50.3565 27.6354 50.4757 24.7763 51.3451 22.2867C51.4694 21.9344 51.6103 21.588 51.7669 21.2486C51.9235 20.9093 52.096 20.578 52.2835 20.2545C52.4711 19.931 52.6732 19.6161 52.89 19.3111C53.1068 19.0061 53.3381 18.7112 53.5824 18.4273C54.2896 17.6104 55.1817 16.8614 56.2074 16.4791C56.8125 16.8473 57.2342 17.3799 57.6966 17.9039C59.1496 19.5504 60.4378 21.3137 60.9642 23.4752C61.4733 25.5658 61.2528 27.6104 60.6771 29.6578C60.4981 30.294 60.2072 31.0135 60.1781 31.6754C60.144 32.4537 60.5422 33.3349 60.7904 34.0621C61.6572 36.6037 61.5805 39.1118 60.1322 41.4361C59.1534 43.0068 57.7221 44.1841 56.6742 45.691C55.8906 46.8177 55.3989 48.1148 54.6761 49.2789C53.1724 51.7007 50.6106 53.5263 47.9427 54.4918C46.9215 54.8614 45.864 55.1012 44.807 55.3434C41.4609 56.11 38.555 56.5599 35.4691 54.6324C33.0819 53.1416 30.7898 50.3038 30.1566 47.5543C29.93 46.5704 29.9696 45.5944 30.0648 44.5973C27.9644 45.0671 26.0742 45.4561 24.721 47.2682C25.6676 48.1962 26.3329 49.1579 26.3382 50.526C26.3422 51.5826 25.9066 52.5647 25.1546 53.3082C24.3676 54.0863 23.2487 54.506 22.1419 54.4859C21.0395 54.466 19.991 54.0279 19.2357 53.2262C18.4907 52.4351 18.0457 51.3491 18.0892 50.2613C18.0922 50.1949 18.0967 50.1283 18.1029 50.0621C18.1091 49.9955 18.1168 49.9282 18.1263 49.8619C18.1358 49.796 18.1467 49.7301 18.1595 49.6647C18.1723 49.5989 18.1875 49.5333 18.2035 49.4684C18.2194 49.4035 18.237 49.3391 18.2562 49.275C18.2754 49.2109 18.2954 49.1466 18.3177 49.0836C18.34 49.0205 18.3645 48.958 18.39 48.8961C18.4154 48.8342 18.4426 48.7722 18.471 48.7115C18.4995 48.651 18.5296 48.5909 18.5609 48.5318C18.5922 48.4729 18.6244 48.4144 18.6585 48.357C18.6928 48.2997 18.729 48.2429 18.766 48.1871C18.803 48.1313 18.8414 48.0758 18.8812 48.0221C18.921 47.9681 18.9629 47.9149 19.0052 47.8629C19.0476 47.811 19.0912 47.7594 19.1361 47.7096C19.1809 47.6599 19.2275 47.6115 19.2747 47.5641C19.3221 47.5165 19.3707 47.4696 19.4202 47.4244C20.2479 46.6714 21.3066 46.3915 22.4066 46.3824C23.0939 45.5314 23.7717 44.6837 24.7171 44.0982C26.2913 43.1235 28.0416 42.8347 29.7689 42.2731C32.5262 41.3762 33.9222 39.8574 34.0531 37.2467C32.6904 36.5032 31.6706 35.221 31.2796 33.693C28.1629 34.6519 25.7485 38.1593 23.0755 39.8795C22.2278 40.425 21.2832 40.889 20.3118 41.1715C19.3594 41.4484 18.2442 41.5929 17.3822 42.0875C16.8383 42.3997 16.4393 42.9122 15.9427 43.2857C15.6933 43.4732 15.4101 43.6129 15.0911 43.5484C14.8468 43.4989 14.7241 43.3127 14.6195 43.107C14.0951 42.0772 13.8512 40.4985 13.4613 39.3375C13.1901 38.5304 12.8248 37.7609 12.5452 36.9576C11.8624 34.9952 11.8026 32.8735 12.4701 30.9C12.7411 30.0992 13.2509 29.3921 13.4925 28.5826C13.5001 28.5575 13.5069 28.5317 13.514 28.5064C13.3665 27.8599 13.2093 27.2113 13.0941 26.5582C12.6299 23.9251 13.0916 21.1416 14.6693 18.9391C16.8222 15.9339 19.4555 15.6279 22.0892 13.5758C23.6774 12.3383 24.8009 10.6965 26.5589 9.64317C27.8081 8.89492 29.2348 8.34974 30.6771 8.12071ZM38.2181 37.7584C37.7367 37.8829 37.2307 37.9468 36.7093 37.94C36.6091 37.9387 36.5093 37.9347 36.4105 37.9283C36.01 39.8951 35.348 41.6328 33.5794 42.9068C33.2508 43.1436 32.9029 43.3592 32.5609 43.5768C32.0231 45.3926 32.2482 47.1154 33.1566 48.7701C34.2928 50.8401 36.0438 52.833 38.3919 53.5231C39.7364 53.9179 41.2245 53.7852 42.5433 53.36C41.091 51.9281 39.9363 50.5036 39.9202 48.3736C39.9112 47.1552 40.2604 45.9744 40.4095 44.7731C40.7219 42.2582 39.8379 39.6969 38.2181 37.7584ZM53.4554 46.1705C52.3617 46.3223 51.2627 46.3996 50.1585 46.401C47.4163 46.4186 44.5499 46.135 42.3128 48.0484C42.3229 49.2878 42.6218 50.1511 43.512 51.0221C43.5883 51.0964 43.6667 51.1683 43.7474 51.2379C44.7239 51.9912 45.807 52.4741 47.0697 52.3131C49.059 52.0589 51.0057 50.2873 52.1702 48.7721C52.5784 48.2408 53.6315 46.8849 53.6898 46.234L53.6077 46.1578L53.4554 46.1705ZM42.1898 34.0299C41.8465 35.0905 41.1956 36.0128 40.3431 36.6949C40.6401 37.1335 40.9756 37.5571 41.2376 38.0084C42.4972 40.1777 42.8434 42.5332 42.8099 44.9986C43.7516 44.6284 44.6812 44.3293 45.6888 44.1949C48.6828 43.7957 51.9967 44.4987 54.848 43.2994C56.5512 42.5828 57.8391 41.1512 58.5111 39.4576C59.1755 37.7834 59.1944 36.2783 58.4798 34.6256C57.7572 35.3829 57.0313 36.1561 56.1663 36.7564C54.0522 38.2235 51.4041 38.5654 49.0492 37.4459C48.3133 37.0962 47.6386 36.6162 46.9583 36.1725C45.4437 35.1845 43.9486 34.4097 42.1898 34.0299ZM19.0345 27.6354C18.9811 27.6384 18.9276 27.6428 18.8743 27.6471C17.3903 27.9653 16.2882 28.8878 15.4818 30.1451C15.4205 30.2392 15.3615 30.3353 15.305 30.4322C15.2485 30.5291 15.1945 30.6276 15.1429 30.7272C15.0914 30.8269 15.0419 30.9278 14.9954 31.0299C14.9488 31.132 14.905 31.2361 14.8636 31.3404C14.8223 31.4446 14.7834 31.5498 14.7474 31.6559C14.7113 31.7622 14.6775 31.8702 14.6468 31.9781C14.6161 32.0861 14.588 32.1951 14.5628 32.3043C14.5377 32.4133 14.5152 32.5231 14.4954 32.6334C14.4757 32.7437 14.4588 32.8551 14.4447 32.9664C14.4305 33.0778 14.419 33.1895 14.4105 33.3014C14.4018 33.4132 14.3959 33.5253 14.3929 33.6373C14.39 33.7494 14.3902 33.8622 14.3929 33.9742C14.3957 34.0863 14.4012 34.1984 14.4095 34.3102C14.4178 34.4221 14.4288 34.5338 14.4427 34.6451C14.4565 34.7564 14.473 34.8676 14.4925 34.9781C14.512 35.0886 14.5339 35.1989 14.5589 35.3082C14.9478 36.9708 15.6935 38.5949 16.2201 40.2232C17.8097 39.1376 19.8223 39.0684 21.4896 38.0904C23.9731 36.5735 25.8042 34.2133 28.2191 32.5738C27.6143 32.0327 26.8826 31.657 26.2474 31.1539C24.0651 29.4257 22.0354 27.4731 19.0345 27.6354ZM36.7962 28.6773C34.7963 28.6773 33.1753 30.2985 33.1751 32.2984C33.1751 34.2985 34.7962 35.9205 36.7962 35.9205C38.7962 35.9204 40.4173 34.2984 40.4173 32.2984C40.4172 30.2986 38.7961 28.6775 36.7962 28.6773ZM55.8324 19.4488C55.0289 20.1922 54.3727 20.969 53.9066 21.9645C53.2915 23.2788 53.1232 24.7031 52.7718 26.0934C51.8675 29.6688 49.9314 32.1686 46.2396 33.0426C47.4388 33.8212 48.6669 34.7716 49.9701 35.357C51.3027 35.8182 52.7142 35.9414 54.0179 35.3199C56.0095 34.3703 57.4689 31.8909 58.1576 29.8951C58.9844 27.4986 59.1969 24.7643 58.0443 22.4361C57.5152 21.3678 56.7272 20.2511 55.8324 19.4488ZM27.1742 19.4635C26.2222 17.1388 23.8031 16.5533 21.4974 17.0338C19.4664 17.4572 17.5245 18.8922 16.3988 20.6061C15.2281 22.3886 15.0826 24.5389 15.515 26.5787C15.5268 26.6341 15.5398 26.6896 15.5531 26.7447C17.1258 25.5777 18.7357 25.0624 20.7025 25.3522C22.2343 25.5778 23.5913 26.2751 24.849 27.1481C26.8281 28.5221 28.4069 30.4069 30.9788 30.5934C31.104 30.6024 31.2331 30.6096 31.3636 30.6129C31.6493 29.7076 32.158 28.9015 32.8255 28.2574C32.4748 28.0556 32.1204 27.8533 31.8314 27.5856C31.8006 27.5676 31.7692 27.5496 31.7386 27.5309C31.3846 27.3146 31.0689 26.9929 30.7738 26.7047C29.5389 25.4986 28.6416 24.1442 28.0628 22.5191C27.7083 21.5231 27.5708 20.4324 27.1742 19.4635ZM31.8529 10.2037C29.617 10.243 27.638 11.4734 26.1302 13.0426C25.662 13.5299 25.2353 14.0653 24.7962 14.5787C26.6389 15.125 28.1372 16.0761 29.0706 17.7936C29.5199 18.6204 29.7418 19.5068 29.9818 20.4078C30.7646 23.3457 31.5395 24.2739 33.9359 25.9996C34.3104 26.2277 34.6927 26.4426 35.0824 26.6441C35.0589 26.2541 35.0383 25.8679 35.0482 25.4772C35.0408 24.1591 35.2249 22.8866 35.556 21.6109C35.8509 20.4752 36.299 19.3834 36.5951 18.2506C37.1848 15.9943 37.1993 13.2528 35.4085 11.5045C34.4541 10.5729 33.1727 10.1806 31.8529 10.2037Z" fill="white"/>
<path fill-rule="evenodd" clip-rule="evenodd" d="M111.026 28.6354C113.184 28.6354 114.946 29.0825 116.309 29.9772C117.492 30.7331 118.486 31.6516 119.291 32.732V29.274H121.677V49.7242H119.291V46.2652C118.485 47.3479 117.492 48.2742 116.309 49.0426C114.946 49.9231 113.184 50.3639 111.026 50.3639C108.895 50.3639 107.021 49.8731 105.402 48.8932C103.797 47.8991 102.54 46.5785 101.631 44.9313C101.383 44.4746 101.171 44.0048 100.992 43.5231V49.7242H98.6048V36.6871C98.6048 34.9832 98.1294 33.5988 97.1781 32.5338C96.2266 31.4687 94.8134 30.9361 92.9388 30.9361C91.7175 30.9361 90.6024 31.2124 89.5941 31.7662C88.6 32.3201 87.8048 33.1017 87.2083 34.11C86.6262 35.1039 86.3353 36.2612 86.3353 37.5816V49.7242H83.9495V36.6871C83.9495 34.9831 83.4732 33.5988 82.5218 32.5338C81.5703 31.4687 80.1572 30.9361 78.2826 30.9361C77.0613 30.9362 75.9461 31.2124 74.9378 31.7662C73.9438 32.3201 73.1485 33.1017 72.5521 34.11C71.97 35.1039 71.6791 36.2612 71.679 37.5816V49.7242H69.2933V29.274H71.679V32.3844C72.3039 31.4755 72.9928 30.7512 73.7454 30.2115C74.5123 29.6577 75.3148 29.2596 76.1527 29.0182C76.9903 28.7626 77.8423 28.6354 78.7083 28.6354C80.5686 28.6354 82.0601 29.0326 83.182 29.8277C84.3181 30.623 85.1424 31.5891 85.6536 32.7252C86.8892 31.0352 88.1815 29.9347 89.5306 29.4234C90.8796 28.898 92.1576 28.6354 93.3646 28.6354C95.1682 28.6354 96.6313 29.0043 97.7533 29.7428C98.8751 30.4812 99.6922 31.4182 100.203 32.5543C100.664 33.5371 100.922 34.5312 100.979 35.5357C101.005 35.4652 101.029 35.3938 101.056 35.3238C101.581 34.0032 102.313 32.8462 103.25 31.8522C104.202 30.8438 105.338 30.055 106.659 29.4869C107.979 28.9189 109.435 28.6354 111.026 28.6354ZM111.069 30.9361C109.464 30.9361 108.043 31.2833 106.808 31.9791C105.572 32.675 104.599 33.6692 103.889 34.9615C103.193 36.2397 102.845 37.7528 102.845 39.4996C102.845 41.2462 103.193 42.7587 103.889 44.0367C104.599 45.3149 105.572 46.3091 106.808 47.0191C108.043 47.715 109.464 48.0631 111.069 48.0631C112.673 48.063 114.093 47.7149 115.328 47.0191C116.564 46.3091 117.53 45.3149 118.226 44.0367C118.936 42.7587 119.291 41.2463 119.291 39.4996C119.291 37.7528 118.936 36.2397 118.226 34.9615C117.53 33.6693 116.564 32.6749 115.328 31.9791C114.093 31.2834 112.673 30.9362 111.069 30.9361Z" fill="white"/>
<path d="M170.805 49.7252H168.419V29.275H170.805V49.7252Z" fill="white"/>
<path d="M166.308 49.7242H163.922V19.0494H166.308V49.7242Z" fill="white"/>
<path d="M169.612 20.9674C170.165 20.9674 170.634 21.1656 171.018 21.5631C171.416 21.9465 171.615 22.4155 171.615 22.9693C171.615 23.5232 171.416 23.9994 171.018 24.3971C170.634 24.7804 170.165 24.9723 169.612 24.9723C169.058 24.9722 168.582 24.7803 168.185 24.3971C167.801 23.9994 167.61 23.5232 167.61 22.9693C167.61 22.4155 167.801 21.9465 168.185 21.5631C168.582 21.1657 169.058 20.9675 169.612 20.9674Z" fill="white"/>
</svg>
