<svg width="36" height="36" viewBox="0 0 36 36" fill="none" xmlns="http://www.w3.org/2000/svg">
<path fill-rule="evenodd" clip-rule="evenodd" d="M14.5965 5.0679C15.7683 4.88349 16.9454 5.06177 17.916 5.76236C17.993 5.81789 18.068 5.87608 18.1409 5.93687C18.2136 5.99766 18.2841 6.06092 18.3523 6.1266C18.4205 6.19236 18.4865 6.26048 18.5497 6.33083C18.6131 6.40119 18.6737 6.47378 18.7317 6.54841C18.7898 6.62302 18.8451 6.69961 18.8976 6.77815C18.9502 6.85665 18.9997 6.93687 19.0465 7.01882C19.0931 7.10082 19.1368 7.18442 19.1775 7.26947C19.2181 7.35452 19.2557 7.44088 19.2901 7.52855C20.3746 10.3041 18.2025 12.4883 18.6124 15.1633C18.6339 15.2564 18.6599 15.4159 18.7049 15.5617C18.8971 15.6001 19.083 15.6554 19.261 15.7257C19.2903 15.7084 19.3194 15.6905 19.3482 15.6712C19.7657 15.3918 20.1389 15.0395 20.5244 14.7185C21.2553 14.11 22.0208 13.5474 22.6345 12.8154C22.7116 12.7233 22.785 12.6283 22.8548 12.5306C22.9245 12.4329 22.9904 12.3327 23.0525 12.23C23.1143 12.1274 23.1723 12.0225 23.226 11.9155C23.2798 11.8085 23.3294 11.6996 23.3747 11.5888C23.6217 10.986 23.7059 10.3635 23.7014 9.71733C22.9474 9.6069 22.33 9.36981 21.8597 8.74967C21.8374 8.71982 21.8158 8.6895 21.795 8.65863C21.7741 8.62772 21.7541 8.59632 21.7349 8.56447C21.7157 8.53263 21.6972 8.50029 21.6795 8.4675C21.6619 8.43476 21.6451 8.40155 21.6292 8.36796C21.6132 8.33435 21.598 8.30032 21.5839 8.266C21.5696 8.23169 21.5561 8.19706 21.5436 8.16209C21.5311 8.12714 21.5196 8.09181 21.5089 8.05622C21.4982 8.0207 21.4883 7.98494 21.4794 7.94896C21.4705 7.91292 21.4625 7.87662 21.4554 7.84021C21.4483 7.80382 21.4421 7.76725 21.4368 7.73052C21.4316 7.69379 21.4273 7.65691 21.4238 7.61998C21.4204 7.58309 21.418 7.54613 21.4165 7.50913C21.4149 7.47208 21.4143 7.4349 21.4147 7.3978C21.415 7.36077 21.4163 7.32373 21.4185 7.28671C21.4207 7.24969 21.4237 7.21272 21.4277 7.17586C21.4318 7.13903 21.4368 7.10226 21.4427 7.06563C21.5392 6.43622 21.8773 5.92222 22.3956 5.54713C22.841 5.22486 23.5017 5.03776 24.0518 5.13179C24.7126 5.24481 25.3149 5.5951 25.6926 6.14641C25.7141 6.17724 25.7349 6.20861 25.7548 6.24042C25.7748 6.27229 25.794 6.30463 25.8124 6.33739C25.8307 6.37014 25.8483 6.40333 25.865 6.43693C25.8817 6.47058 25.8976 6.5046 25.9126 6.53897C25.9276 6.57334 25.9417 6.6081 25.955 6.64319C25.9683 6.67826 25.9806 6.71363 25.9921 6.74929C26.0036 6.78492 26.0143 6.82088 26.024 6.8571C26.0336 6.89328 26.0424 6.92973 26.0502 6.96632C26.0581 7.00295 26.0651 7.03975 26.0711 7.07671C26.0772 7.11361 26.0822 7.15069 26.0863 7.18787C26.0906 7.22506 26.0939 7.26237 26.0962 7.29974C26.0985 7.33708 26.1 7.37452 26.1004 7.41192C26.1008 7.44933 26.1003 7.48683 26.0989 7.52426C26.0975 7.56164 26.0951 7.59902 26.0918 7.63629C26.0885 7.67354 26.0842 7.7107 26.0791 7.74776C26.074 7.78483 26.0679 7.82176 26.0609 7.85854C26.0065 8.13245 25.8961 8.52786 25.7251 8.75318C25.5564 8.97556 25.2337 9.12343 25.1512 9.3967C25.0813 9.62836 25.1054 9.91684 25.0849 10.1589C25.0412 10.6735 24.946 11.1977 24.7743 11.6864C24.1438 13.4804 22.7475 14.5963 21.3205 15.7618C21.0314 15.9978 20.703 16.2445 20.4296 16.5207C20.8077 16.9246 21.0805 17.4252 21.2056 17.9797C22.422 18.0143 23.6733 18.0347 24.6112 17.1411C25.7619 16.0446 25.8296 14.4364 26.323 13.036C26.3935 12.8378 26.4734 12.6432 26.5623 12.4523C26.6512 12.2613 26.7489 12.0749 26.8553 11.8928C26.9618 11.7108 27.0765 11.5339 27.1995 11.3624C27.3226 11.1908 27.4535 11.0251 27.5921 10.8654C27.9934 10.4059 28.4995 9.9846 29.0815 9.76952C29.4249 9.97664 29.6641 10.2761 29.9265 10.5709C30.7508 11.497 31.4817 12.4886 31.7803 13.7044C32.0692 14.8806 31.9441 16.0308 31.6174 17.1826C31.5158 17.5406 31.3509 17.9452 31.3344 18.3175C31.3151 18.7554 31.5407 19.2509 31.6815 19.6599C32.1733 21.0896 32.1301 22.5 31.3083 23.8074C30.753 24.6911 29.9407 25.3534 29.3461 26.2012C28.9015 26.835 28.623 27.5646 28.2128 28.2195C27.3597 29.5817 25.9061 30.6083 24.3925 31.1514C23.813 31.3593 23.213 31.494 22.6131 31.6302C20.7147 32.0615 19.0665 32.3147 17.3156 31.2305C15.9612 30.3919 14.6605 28.7961 14.3012 27.2494C14.1726 26.6959 14.1949 26.1469 14.2489 25.586C13.0572 25.8503 11.9853 26.0691 11.2175 27.0885C11.7546 27.6105 12.1318 28.1513 12.1348 28.921C12.137 29.5154 11.8899 30.0675 11.4633 30.4857C11.0167 30.9234 10.382 31.1597 9.75404 31.1484C9.12858 31.1372 8.53373 30.8907 8.10517 30.4398C7.68245 29.9948 7.42985 29.3841 7.45452 28.7721C7.45621 28.7346 7.45881 28.697 7.46231 28.6596C7.46586 28.6221 7.47028 28.5847 7.47569 28.5474C7.48109 28.5102 7.48754 28.473 7.49481 28.4361C7.50206 28.3991 7.51021 28.3623 7.51928 28.3257C7.52834 28.2892 7.53835 28.2529 7.54926 28.2168C7.56015 28.1807 7.57195 28.1449 7.58459 28.1094C7.59727 28.0739 7.61082 28.0386 7.62527 28.0038C7.63967 27.969 7.65494 27.9344 7.67106 27.9003C7.68722 27.8661 7.70427 27.8325 7.72205 27.7992C7.73989 27.7658 7.75846 27.733 7.77792 27.7005C7.79738 27.6682 7.81775 27.6364 7.83874 27.6049C7.85979 27.5735 7.88167 27.5425 7.90429 27.5122C7.92686 27.4818 7.95015 27.4521 7.97416 27.4228C7.99823 27.3936 8.02309 27.3649 8.0486 27.3368C8.07406 27.3088 8.10027 27.2813 8.12713 27.2546C8.154 27.2278 8.18154 27.2016 8.20967 27.1762C8.67926 26.7525 9.28011 26.5949 9.90425 26.5897C10.2942 26.1111 10.6786 25.6346 11.215 25.3054C12.1082 24.757 13.101 24.5944 14.0811 24.2784C15.6456 23.7739 16.4377 22.9197 16.5119 21.4509C15.7388 21.0327 15.1601 20.3117 14.9383 19.4522C13.17 19.9916 11.8005 21.9643 10.2839 22.9319C9.8029 23.2388 9.26705 23.5001 8.71586 23.659C8.17546 23.8148 7.54258 23.8958 7.05346 24.1741C6.74484 24.3497 6.51854 24.6381 6.2367 24.8483C6.09515 24.9538 5.93454 25.0324 5.75348 24.9961C5.61485 24.9682 5.54573 24.8632 5.48635 24.7476C5.1888 24.1683 5.05016 23.2805 4.82892 22.6274C4.67508 22.1734 4.46794 21.7406 4.30928 21.2887C3.9218 20.1848 3.88807 18.9915 4.26679 17.8814C4.42054 17.4308 4.70987 17.0332 4.84694 16.5779C4.85124 16.5637 4.85502 16.5492 4.85906 16.5349C4.77537 16.1712 4.68625 15.8065 4.62088 15.4391C4.35742 13.9578 4.61916 12.3919 5.51444 11.1528C6.73592 9.4624 8.22986 9.29056 9.72414 8.13626C10.6253 7.44012 11.2627 6.51649 12.2602 5.924C12.9689 5.50312 13.7782 5.19673 14.5965 5.0679ZM18.8749 21.739C18.6017 21.809 18.3147 21.8448 18.0188 21.841C17.962 21.8403 17.9056 21.838 17.8495 21.8344C17.6223 22.9408 17.2468 23.9185 16.2433 24.6352C16.0568 24.7683 15.8594 24.8893 15.6654 25.0116C15.3602 26.0331 15.488 27.0022 16.0034 27.9331C16.648 29.0975 17.6415 30.2187 18.9738 30.6068C19.7366 30.8289 20.5807 30.7541 21.3289 30.5149C20.505 29.7095 19.8497 28.9082 19.8406 27.7101C19.8355 27.0246 20.0339 26.3604 20.1185 25.6846C20.2957 24.2699 19.794 22.8294 18.8749 21.739ZM27.5202 26.4709C26.8996 26.5563 26.276 26.5994 25.6494 26.6002C24.0935 26.6101 22.4677 26.4508 21.1985 27.5271C21.2041 28.2243 21.3733 28.7099 21.8784 29.1999C21.9217 29.2417 21.9663 29.2822 22.0121 29.3214C22.5661 29.7451 23.1806 30.0166 23.897 29.926C25.0257 29.7831 26.1304 28.7866 26.7911 27.9343C27.0227 27.6354 27.6201 26.8727 27.6531 26.5066L27.6066 26.4638L27.5202 26.4709ZM21.1282 19.6416C20.9334 20.2382 20.5644 20.757 20.0807 21.1407C20.2492 21.3874 20.4398 21.6256 20.5885 21.8795C21.3031 23.0997 21.4991 24.4245 21.4801 25.8113C22.0144 25.6031 22.5417 25.4352 23.1134 25.3596C24.8121 25.1349 26.6922 25.5303 28.3099 24.8557C29.2764 24.4526 30.0074 23.6477 30.3887 22.695C30.7657 21.7532 30.7762 20.9066 30.3708 19.9769C29.9608 20.4029 29.5489 20.8377 29.0581 21.1754C27.8586 22.0006 26.3563 22.1929 25.0202 21.5631C24.6027 21.3664 24.2197 21.0968 23.8336 20.8471C22.9743 20.2913 22.1262 19.8552 21.1282 19.6416ZM12.0833 18.0237C10.8452 17.0516 9.69385 15.9538 7.99124 16.045C7.96079 16.0467 7.93032 16.0487 7.89996 16.0511C7.05795 16.2301 6.43298 16.749 5.97546 17.4563C5.94062 17.5093 5.90713 17.5632 5.87505 17.6177C5.84295 17.6723 5.81221 17.7278 5.78291 17.7839C5.75362 17.8401 5.72574 17.8969 5.69935 17.9544C5.67291 18.0119 5.64792 18.0701 5.62444 18.1288C5.60096 18.1875 5.57894 18.2467 5.5585 18.3065C5.53802 18.3663 5.5191 18.4267 5.50169 18.4873C5.48424 18.5481 5.46832 18.6094 5.45401 18.6709C5.4397 18.7323 5.42691 18.7942 5.41569 18.8563C5.40451 18.9184 5.39493 18.9809 5.38689 19.0436C5.37885 19.1062 5.37239 19.169 5.36753 19.2319C5.36263 19.2948 5.35929 19.3579 5.35762 19.421C5.35594 19.4841 5.35594 19.5472 5.35746 19.6102C5.35902 19.6734 5.36204 19.7364 5.36674 19.7993C5.37145 19.8622 5.37781 19.9251 5.38571 19.9877C5.39356 20.0503 5.40299 20.1128 5.41403 20.175C5.42508 20.2372 5.43777 20.2992 5.45196 20.3607C5.67261 21.2959 6.09533 22.2094 6.39407 23.1254C7.29599 22.5146 8.43794 22.4759 9.3839 21.9258C10.793 21.0725 11.8319 19.7449 13.202 18.8226C12.8588 18.5182 12.4437 18.3068 12.0833 18.0237ZM18.0682 16.6308C16.9335 16.6308 16.0136 17.5429 16.0136 18.6679C16.0136 19.7929 16.9335 20.7049 18.0682 20.7049C19.203 20.7049 20.1229 19.7929 20.1229 18.6679C20.1229 17.5429 19.203 16.6308 18.0682 16.6308ZM28.8687 11.4399C28.4128 11.858 28.0405 12.2947 27.7761 12.8547C27.427 13.594 27.3317 14.3952 27.1323 15.1773C26.6193 17.1886 25.5208 18.5945 23.4262 19.0861C24.1066 19.5241 24.8032 20.0591 25.5426 20.3884C26.2987 20.6478 27.0994 20.7172 27.8391 20.3676C28.9692 19.8335 29.7971 18.4388 30.1879 17.3161C30.657 15.968 30.7775 14.4298 30.1234 13.1201C29.8232 12.5192 29.3764 11.8912 28.8687 11.4399ZM12.6094 11.4483C12.0694 10.1403 10.6965 9.81092 9.38815 10.0813C8.23585 10.3194 7.13449 11.1265 6.49581 12.0905C5.83145 13.0933 5.74909 14.3028 5.99442 15.4503C6.00113 15.4815 6.00816 15.5127 6.01567 15.5437C6.90802 14.8872 7.82155 14.5975 8.93752 14.7606C9.8066 14.8875 10.5763 15.2796 11.2899 15.7707C12.4128 16.5436 13.3084 17.6038 14.7677 17.7087C14.8387 17.7138 14.912 17.7179 14.986 17.7197C15.1481 17.2104 15.4367 16.7568 15.8155 16.3944C15.6166 16.2809 15.4157 16.1671 15.2517 16.0165C15.2342 16.0063 15.2164 15.9965 15.199 15.986C14.9981 15.8643 14.819 15.6832 14.6515 15.521C13.9508 14.8426 13.4415 14.081 13.1131 13.1669C12.912 12.6067 12.8344 11.9933 12.6094 11.4483ZM15.2637 6.23925C13.9951 6.26133 12.8722 6.95356 12.0167 7.83623C11.7511 8.11034 11.5091 8.41159 11.26 8.70037C12.3055 9.00763 13.1558 9.54254 13.6854 10.5086C13.9403 10.9738 14.0658 11.4726 14.202 11.9794C14.6462 13.632 15.0858 14.1538 16.4454 15.1246C16.6579 15.2529 16.8749 15.3738 17.096 15.4872C17.0827 15.2678 17.0709 15.0508 17.0765 14.831C17.0722 14.0895 17.1768 13.3736 17.3647 12.6559C17.532 12.017 17.7859 11.4032 17.9539 10.766C18.2886 9.4967 18.2971 7.95444 17.2809 6.971C16.7394 6.44695 16.0125 6.22627 15.2637 6.23925Z" fill="#4AE84F"/>
</svg>
