<svg width="28" height="28" viewBox="0 0 28 28" fill="none" xmlns="http://www.w3.org/2000/svg">
<g clip-path="url(#clip0_3585_7008)">
<path fill-rule="evenodd" clip-rule="evenodd" d="M4.33697 5.16669C5.60919 3.89232 5.94278 2.50713 7.69628 1.54993C8.98155 0.848386 10.5073 0.779523 11.8926 1.19487C12.2362 1.29791 12.5744 1.42296 12.9124 1.54281C12.9266 1.54063 12.9408 1.53867 12.9549 1.53623C13.4054 1.45887 13.8181 1.23198 14.266 1.13841C15.3695 0.907931 16.5057 1.07465 17.5164 1.5639C17.9301 1.76421 18.32 2.00797 18.7364 2.20401C19.3353 2.48593 20.1677 2.71671 20.6874 3.06203C20.7911 3.13094 20.8837 3.20781 20.8946 3.34131C20.9088 3.51567 20.8154 3.65785 20.6986 3.77901C20.4659 4.02022 20.1647 4.20034 19.9619 4.47063C19.6406 4.89904 19.4914 5.48493 19.2813 5.97541C19.067 6.47569 18.7566 6.94991 18.4089 7.36745C17.2946 8.70526 15.2059 9.78271 14.5228 11.4283C14.6699 11.4878 14.8141 11.5605 14.9535 11.6469L15.015 11.6861C15.5333 12.0256 15.904 12.5085 16.1077 13.0498C17.8174 12.5395 19.0879 11.9043 20.1019 11.0477C21.3302 10.0101 22.2256 8.61112 23.0467 6.59866C23.0248 6.58586 23.0029 6.57273 22.9812 6.55927C22.9525 6.54147 22.9243 6.52307 22.8964 6.50443C22.8834 6.49575 22.8704 6.48717 22.8577 6.47831C22.8459 6.47015 22.8343 6.46175 22.8227 6.45344C22.7964 6.43462 22.7704 6.41557 22.7449 6.39599C22.7343 6.38786 22.724 6.37949 22.7135 6.37122C22.7053 6.36476 22.6971 6.35841 22.689 6.35187C22.6809 6.34535 22.6731 6.33862 22.6651 6.33203C22.6366 6.30842 22.6085 6.28447 22.5811 6.25992C22.573 6.25261 22.565 6.24511 22.5569 6.23771C22.5476 6.22915 22.5382 6.2207 22.529 6.21203C22.5202 6.20379 22.5117 6.19537 22.5031 6.18704C22.4953 6.17951 22.4874 6.17207 22.4798 6.16447C22.4706 6.15544 22.4617 6.14622 22.4528 6.13708C22.4457 6.12985 22.4385 6.12271 22.4314 6.11541C22.423 6.10668 22.4148 6.0978 22.4065 6.08897C22.3982 6.08008 22.3898 6.07122 22.3816 6.06223C22.3756 6.05559 22.3696 6.04883 22.3636 6.04213C22.3548 6.03226 22.3459 6.02244 22.3372 6.01246C22.3291 6.00308 22.3211 5.99354 22.3131 5.98407C22.3063 5.97604 22.2994 5.96808 22.2927 5.95999C22.2851 5.95082 22.2777 5.94153 22.2702 5.93228C22.2637 5.92419 22.2571 5.91616 22.2507 5.90801C22.243 5.89822 22.2355 5.88829 22.2279 5.8784C22.2207 5.86901 22.2135 5.85964 22.2064 5.85017C22.2005 5.84225 22.1947 5.83425 22.1889 5.82627C22.1812 5.81576 22.1735 5.80525 22.166 5.79464C22.1603 5.78669 22.1548 5.77865 22.1493 5.77065C22.1424 5.7607 22.1354 5.7508 22.1286 5.74078C22.1217 5.73051 22.1149 5.72014 22.1082 5.7098C22.103 5.70192 22.0978 5.69411 22.0927 5.68619C22.0859 5.67563 22.0793 5.66495 22.0727 5.65431C22.0668 5.64478 22.0608 5.63528 22.055 5.62569C22.0494 5.61651 22.044 5.60724 22.0385 5.598C22.0328 5.58833 22.0271 5.57868 22.0215 5.56895C22.0149 5.55746 22.0084 5.54591 22.002 5.53433C21.9977 5.52658 21.9934 5.51884 21.9891 5.51105C21.9826 5.49902 21.9762 5.48691 21.9699 5.4748C21.9653 5.46613 21.9607 5.45749 21.9563 5.44878C21.9506 5.43766 21.945 5.42645 21.9395 5.41525C21.9353 5.4069 21.9312 5.39856 21.9271 5.39016C21.9215 5.37859 21.9161 5.36695 21.9107 5.35531C21.9061 5.34552 21.9016 5.33572 21.8971 5.32588C21.8924 5.31542 21.8877 5.30493 21.8831 5.29442C21.8792 5.28538 21.8752 5.27633 21.8714 5.26725C21.8662 5.25503 21.8611 5.24276 21.8561 5.23047C21.8526 5.22196 21.8491 5.21345 21.8457 5.20492C21.8411 5.19335 21.8366 5.18175 21.8322 5.17013C21.8284 5.1603 21.8246 5.15047 21.821 5.1406C21.817 5.1298 21.8132 5.11894 21.8093 5.10809C21.8054 5.0972 21.8016 5.0863 21.7978 5.07536C21.7945 5.06567 21.7912 5.05596 21.788 5.04624C21.7842 5.03468 21.7805 5.02309 21.7768 5.01148C21.7736 5.00138 21.7705 4.99124 21.7675 4.98111C21.7641 4.96997 21.7607 4.95884 21.7574 4.94766C21.7542 4.93639 21.751 4.9251 21.7479 4.91379C21.7452 4.904 21.7425 4.89418 21.7399 4.88437C21.7371 4.87357 21.7343 4.86276 21.7315 4.85193C21.7285 4.8401 21.7256 4.82825 21.7228 4.81638C21.7203 4.8059 21.7178 4.7954 21.7154 4.78489C21.713 4.77433 21.7107 4.76377 21.7084 4.75318C21.706 4.74218 21.7038 4.73116 21.7015 4.72013C21.6991 4.70835 21.6968 4.69656 21.6946 4.68475C21.6925 4.67371 21.6905 4.66266 21.6886 4.6516C21.6868 4.64162 21.685 4.63164 21.6834 4.62165C21.6814 4.60981 21.6795 4.59798 21.6777 4.58613C21.676 4.57546 21.6745 4.56478 21.673 4.55409C21.6713 4.54179 21.6695 4.52947 21.668 4.51714C21.6667 4.50768 21.6656 4.49821 21.6645 4.48874C21.663 4.47645 21.6617 4.46415 21.6604 4.45183C21.6591 4.4399 21.658 4.42796 21.6569 4.41601C21.656 4.40574 21.655 4.39547 21.6542 4.38518C21.6533 4.37381 21.6524 4.36243 21.6517 4.35104C21.6509 4.34059 21.6502 4.33014 21.6496 4.31968C21.6489 4.30753 21.6483 4.29538 21.6478 4.28322C21.6473 4.27243 21.6469 4.26164 21.6465 4.25084C21.6461 4.23883 21.6459 4.22681 21.6456 4.21478C21.6454 4.20472 21.6451 4.19466 21.645 4.1846C21.6449 4.17275 21.6449 4.1609 21.645 4.14905C21.645 4.1375 21.6451 4.12594 21.6453 4.11438C21.6454 4.1029 21.6457 4.09141 21.646 4.07991C21.6463 4.06956 21.6466 4.05921 21.647 4.04886C21.6474 4.03773 21.648 4.0266 21.6485 4.01547C21.6492 4.00273 21.6498 3.98998 21.6506 3.97724C21.6511 3.96884 21.6518 3.96044 21.6524 3.95204C21.6534 3.9385 21.6544 3.92496 21.6556 3.91143C21.6564 3.90196 21.6574 3.89249 21.6583 3.88302C21.6596 3.86947 21.6609 3.85592 21.6624 3.84237C21.6636 3.8324 21.6649 3.82245 21.6661 3.81248C21.6676 3.80056 21.669 3.78862 21.6706 3.77671C21.6721 3.76601 21.6736 3.75532 21.6752 3.74463C21.677 3.73262 21.6788 3.7206 21.6807 3.70859C21.6822 3.69917 21.6839 3.68977 21.6855 3.68036C21.6878 3.66705 21.6901 3.65372 21.6925 3.64042C21.6943 3.63104 21.6961 3.62168 21.698 3.61232C21.7005 3.59966 21.703 3.58699 21.7056 3.57435C21.708 3.56301 21.7106 3.5517 21.7132 3.54037C21.7156 3.52953 21.718 3.51867 21.7205 3.50785C21.723 3.49747 21.7256 3.48713 21.7282 3.47677C21.7313 3.46442 21.7343 3.45203 21.7375 3.4397C21.7404 3.42875 21.7435 3.41786 21.7465 3.40693C21.7495 3.39624 21.7524 3.38552 21.7555 3.37485C21.759 3.3624 21.7629 3.35002 21.7666 3.3376C21.7696 3.32777 21.7725 3.31789 21.7756 3.30808C21.7792 3.29674 21.783 3.28547 21.7868 3.27416C21.7904 3.26304 21.7941 3.2519 21.7979 3.24081C21.8007 3.23253 21.8037 3.2243 21.8067 3.21604C21.8117 3.20199 21.8166 3.18791 21.8218 3.17391C21.8241 3.16768 21.8266 3.16149 21.829 3.15527C21.8349 3.13968 21.8409 3.12409 21.8471 3.10857C21.8492 3.1035 21.8513 3.09846 21.8534 3.09339C21.8602 3.07663 21.8671 3.05986 21.8743 3.04318C21.876 3.03919 21.8778 3.03523 21.8795 3.03125C21.887 3.0141 21.8946 2.99697 21.9024 2.97991C21.9075 2.96898 21.9128 2.95816 21.9179 2.94727C21.9229 2.93691 21.9277 2.92648 21.9327 2.91615C21.936 2.90943 21.9395 2.90278 21.9428 2.89608C21.9819 2.8179 22.0248 2.74072 22.0719 2.66499C22.1045 2.61244 22.1388 2.56145 22.1742 2.5118C22.1805 2.50295 22.1867 2.49401 22.1931 2.48526C22.2005 2.47516 22.2081 2.46529 22.2156 2.45532C22.2223 2.44644 22.2288 2.43746 22.2356 2.42867C22.2438 2.41807 22.2522 2.40768 22.2605 2.39722C22.2669 2.38905 22.2733 2.3808 22.2798 2.37272C22.2876 2.3631 22.2956 2.35368 22.3035 2.34418C22.3107 2.33558 22.3178 2.3269 22.325 2.3184C22.3356 2.306 22.3464 2.29381 22.3572 2.28163C22.3616 2.27658 22.366 2.27145 22.3705 2.26644C22.381 2.25464 22.3918 2.24306 22.4026 2.23146C22.4078 2.2258 22.4129 2.22003 22.4182 2.21442C22.4275 2.20454 22.437 2.19489 22.4465 2.18517C22.4535 2.17787 22.4605 2.17049 22.4677 2.16329C22.4768 2.15405 22.4862 2.14503 22.4954 2.13594C22.5024 2.12904 22.5094 2.12205 22.5165 2.11524C22.5252 2.10688 22.534 2.09867 22.5428 2.09044C22.5514 2.08236 22.56 2.07426 22.5687 2.0663C22.5758 2.05984 22.583 2.05351 22.5901 2.04713C22.6001 2.03819 22.61 2.02923 22.6201 2.02045C22.6297 2.01209 22.6395 2.00393 22.6492 1.99571C22.6564 1.98963 22.6635 1.98348 22.6707 1.97748C22.6804 1.96948 22.6902 1.96162 22.6999 1.95376C22.7089 1.94654 22.7178 1.9393 22.7268 1.93221C22.735 1.92579 22.7432 1.91951 22.7514 1.91319C22.7609 1.90591 22.7703 1.89861 22.7799 1.89147C22.7906 1.88345 22.8014 1.8756 22.8122 1.86775C22.8195 1.86247 22.8267 1.85714 22.834 1.85193C22.8458 1.84352 22.8577 1.83527 22.8696 1.82706C22.8764 1.82242 22.883 1.81773 22.8898 1.81315C22.9007 1.80576 22.9117 1.79851 22.9227 1.79128C22.9315 1.78555 22.9402 1.77983 22.949 1.7742C22.9583 1.76825 22.9676 1.76242 22.977 1.75658C22.9871 1.75027 22.9972 1.74395 23.0074 1.73777C23.0167 1.73213 23.026 1.72665 23.0354 1.72112C23.0452 1.71534 23.0549 1.70952 23.0647 1.70387C23.0758 1.69749 23.087 1.6913 23.0982 1.68508C23.1064 1.6805 23.1146 1.67589 23.1229 1.67139C23.1348 1.6649 23.1467 1.65852 23.1588 1.65221C23.1665 1.64811 23.1743 1.64398 23.1822 1.63995C23.1945 1.63358 23.207 1.62739 23.2195 1.6212C23.2276 1.61718 23.2357 1.61316 23.2439 1.60921C23.2545 1.60408 23.2652 1.59908 23.2758 1.59408C23.2861 1.58927 23.2963 1.58445 23.3067 1.57977C23.3165 1.57528 23.3265 1.57089 23.3364 1.56652C23.3477 1.56155 23.359 1.55662 23.3703 1.5518C23.3791 1.54807 23.388 1.54442 23.3968 1.54077C23.4085 1.53592 23.4203 1.53116 23.4321 1.52647C23.4421 1.52251 23.4521 1.51864 23.4621 1.51479C23.4725 1.51079 23.4829 1.50679 23.4934 1.50291C23.5048 1.49869 23.5162 1.49459 23.5276 1.49052C23.5369 1.4872 23.5462 1.48391 23.5555 1.4807C23.5681 1.47636 23.5807 1.47214 23.5933 1.46798C23.6017 1.46523 23.6101 1.46249 23.6184 1.45982C23.6309 1.45586 23.6433 1.45201 23.6558 1.44822C23.666 1.44511 23.6763 1.44202 23.6866 1.43903C23.697 1.43598 23.7075 1.43303 23.718 1.4301C23.7287 1.42712 23.7393 1.4242 23.75 1.42135C23.7619 1.41817 23.7739 1.41506 23.7859 1.41203C23.7954 1.40962 23.805 1.40724 23.8146 1.40492C23.8266 1.40202 23.8386 1.39921 23.8506 1.39646C23.8604 1.39422 23.8703 1.392 23.8802 1.38986C23.8926 1.38716 23.9051 1.38455 23.9176 1.38201C23.9271 1.38009 23.9366 1.37822 23.9461 1.37639C23.958 1.37411 23.9698 1.37187 23.9818 1.36973C23.9928 1.36775 24.0039 1.36589 24.0149 1.36404C24.0258 1.36222 24.0366 1.36047 24.0475 1.35878C24.0586 1.35706 24.0698 1.35542 24.0809 1.35382C24.0922 1.35221 24.1035 1.35059 24.1148 1.34911C24.1257 1.34767 24.1367 1.34634 24.1476 1.34503C24.1593 1.34364 24.171 1.34228 24.1826 1.34104C24.1925 1.33999 24.2023 1.33907 24.2122 1.33812C24.2251 1.33688 24.2381 1.33569 24.251 1.33463C24.2611 1.3338 24.2712 1.33306 24.2813 1.33234C24.2927 1.33152 24.3041 1.33072 24.3155 1.33004C24.3267 1.32938 24.3379 1.32884 24.3491 1.32831C24.3612 1.32774 24.3733 1.32721 24.3854 1.32679C24.3953 1.32645 24.4051 1.32621 24.4149 1.32597C24.4276 1.32567 24.4403 1.32539 24.4529 1.32526C24.4622 1.32516 24.4715 1.32513 24.4807 1.32512C24.4945 1.3251 24.5083 1.32513 24.5221 1.32532C24.5306 1.32544 24.5391 1.32564 24.5477 1.32583C24.5613 1.32614 24.5749 1.32647 24.5885 1.32697C24.5979 1.32732 24.6072 1.32779 24.6166 1.32823C24.6303 1.32887 24.6439 1.32956 24.6576 1.3304C24.6656 1.3309 24.6736 1.33149 24.6817 1.33206C24.6962 1.33308 24.7107 1.33418 24.7252 1.33543C24.7339 1.33617 24.7426 1.33702 24.7513 1.33784C24.7644 1.3391 24.7776 1.34034 24.7908 1.34178C24.8012 1.34293 24.8117 1.34421 24.8221 1.34547C24.8343 1.34694 24.8465 1.34841 24.8587 1.35004C24.868 1.35129 24.8773 1.35271 24.8867 1.35405C24.9005 1.35605 24.9143 1.35804 24.9281 1.36024C24.9372 1.36169 24.9463 1.36331 24.9554 1.36485C24.9678 1.36696 24.9803 1.36905 24.9927 1.37133C25.0028 1.37317 25.0128 1.37517 25.0228 1.37713C25.0361 1.37971 25.0493 1.38227 25.0626 1.38505C25.0705 1.3867 25.0783 1.38856 25.0862 1.39028C25.1006 1.39343 25.115 1.39657 25.1293 1.39995C25.1377 1.40193 25.1461 1.40405 25.1545 1.40611C25.1676 1.40933 25.1808 1.41253 25.1939 1.41595C25.2058 1.41905 25.2176 1.42234 25.2295 1.4256C25.2397 1.4284 25.2499 1.43109 25.2601 1.43402C25.2745 1.43817 25.289 1.44261 25.3034 1.447C25.3107 1.44923 25.3181 1.45138 25.3254 1.45368C25.337 1.45732 25.3486 1.46117 25.3602 1.46496C25.3715 1.46867 25.3828 1.47232 25.3941 1.47618C25.4039 1.47954 25.4137 1.48311 25.4235 1.48658C25.4356 1.49087 25.4477 1.49512 25.4598 1.49958C25.4671 1.50229 25.4744 1.50513 25.4817 1.50791C25.4966 1.51357 25.5116 1.51928 25.5264 1.52522C25.5301 1.52666 25.5337 1.52814 25.5373 1.5296C25.5983 1.55426 25.6589 1.58111 25.7188 1.61035C25.7273 1.6145 25.7357 1.61884 25.7441 1.62308C25.8205 1.66132 25.8959 1.70313 25.9699 1.74898C26.0167 1.77798 26.0623 1.80831 26.1068 1.83955C26.1211 1.84959 26.1354 1.8596 26.1495 1.86986C26.1528 1.87227 26.156 1.8748 26.1593 1.87722C26.1751 1.88887 26.1908 1.90057 26.2063 1.9125L26.2119 1.91684C26.228 1.92929 26.244 1.94186 26.2598 1.9546C26.2693 1.96227 26.2786 1.97013 26.2879 1.9779C26.2965 1.98503 26.3052 1.99207 26.3136 1.99927C26.3226 2.00688 26.3314 2.01465 26.3403 2.02235C26.3485 2.02956 26.3569 2.03669 26.365 2.04398C26.3754 2.05327 26.3857 2.06272 26.3959 2.07214C26.4029 2.07857 26.4099 2.08495 26.4168 2.09143C26.4269 2.10083 26.4367 2.11038 26.4466 2.11991C26.4526 2.12569 26.4586 2.13138 26.4645 2.1372C26.4738 2.14629 26.4829 2.15554 26.492 2.16474C26.5006 2.17348 26.5093 2.1822 26.5178 2.19104C26.525 2.19852 26.5321 2.20609 26.5392 2.21364C26.5468 2.22173 26.5545 2.2298 26.562 2.23798C26.5708 2.24756 26.5795 2.25723 26.5881 2.26691C26.5952 2.27483 26.6023 2.28276 26.6093 2.29075C26.617 2.2996 26.6246 2.30854 26.6322 2.31748C26.6389 2.32525 26.6455 2.33299 26.652 2.34082C26.6598 2.35017 26.6675 2.35959 26.6752 2.36903C26.6824 2.37788 26.6895 2.38677 26.6966 2.39571C26.703 2.40383 26.7094 2.412 26.7157 2.42018C26.7232 2.4298 26.7306 2.43942 26.7379 2.44913C26.7444 2.45776 26.7509 2.46642 26.7573 2.47512C26.7645 2.48497 26.7717 2.49487 26.7788 2.5048C26.7848 2.51326 26.7908 2.52174 26.7968 2.53026C26.8035 2.5399 26.8102 2.54958 26.8168 2.55929C26.8232 2.56878 26.8297 2.5783 26.836 2.58786C26.8423 2.5974 26.8485 2.60701 26.8547 2.61662C26.8605 2.62552 26.8662 2.63443 26.8718 2.64339C26.8775 2.65251 26.8832 2.66165 26.8888 2.67082C26.8955 2.68167 26.9021 2.69256 26.9086 2.7035C26.9134 2.71155 26.9181 2.71966 26.9228 2.72776C26.9289 2.73828 26.935 2.74883 26.9409 2.75942C26.9469 2.77 26.9528 2.78062 26.9586 2.79128C26.9638 2.80079 26.969 2.81031 26.9741 2.81988C26.9785 2.82823 26.9829 2.83661 26.9872 2.845C26.9933 2.85672 26.9994 2.86845 27.0053 2.88025C27.0104 2.89044 27.0153 2.9007 27.0203 2.91094C27.0243 2.91906 27.0283 2.92712 27.0322 2.93527C27.038 2.94761 27.0437 2.96004 27.0494 2.97246C27.0536 2.98164 27.0578 2.9908 27.0619 3.00003C27.0674 3.01244 27.0727 3.02494 27.0781 3.03742C27.0812 3.04472 27.0844 3.05197 27.0875 3.05929C27.0921 3.07039 27.0965 3.08156 27.101 3.09271C27.1055 3.10384 27.11 3.11496 27.1143 3.12615C27.1176 3.13465 27.1207 3.14324 27.124 3.15177C27.1281 3.16285 27.1324 3.17388 27.1364 3.185C27.1402 3.19537 27.1438 3.2058 27.1474 3.21621C27.1514 3.22784 27.1555 3.23946 27.1594 3.25114C27.1606 3.25472 27.1618 3.25832 27.163 3.26191C27.1686 3.27891 27.1741 3.29593 27.1794 3.31303C27.1816 3.31992 27.1835 3.32687 27.1856 3.33378C27.19 3.34852 27.1945 3.36326 27.1987 3.37806C27.2074 3.40886 27.2155 3.43984 27.2231 3.4709C27.2332 3.51181 27.2424 3.55293 27.2507 3.59424C27.2536 3.60873 27.2565 3.62321 27.2592 3.63775C27.2604 3.64404 27.2614 3.65035 27.2625 3.65665C27.2652 3.6718 27.2679 3.68696 27.2703 3.70215C27.2715 3.70958 27.2725 3.71704 27.2737 3.72448C27.2759 3.73915 27.2781 3.75382 27.2801 3.76852C27.2816 3.77918 27.2829 3.78985 27.2842 3.80052C27.2856 3.81135 27.287 3.82218 27.2882 3.83303C27.2896 3.8449 27.2906 3.8568 27.2918 3.86869C27.293 3.87982 27.2942 3.89095 27.2952 3.90211C27.2961 3.91238 27.2968 3.92267 27.2976 3.93295C27.2985 3.94436 27.2994 3.95576 27.3002 3.96718C27.3007 3.97635 27.3012 3.98552 27.3017 3.9947C27.3025 4.00865 27.3032 4.02261 27.3038 4.03658C27.3042 4.04698 27.3044 4.05738 27.3047 4.06778C27.3051 4.07893 27.3055 4.09007 27.3057 4.10122C27.3059 4.11312 27.306 4.12503 27.306 4.13694C27.3061 4.14708 27.3062 4.15721 27.3061 4.16736C27.306 4.17947 27.3057 4.19158 27.3055 4.20369C27.3053 4.21464 27.3051 4.22559 27.3048 4.23654C27.3045 4.2461 27.3042 4.25566 27.3038 4.26522C27.3033 4.27829 27.3027 4.29135 27.302 4.30441C27.3014 4.31478 27.3007 4.32514 27.3 4.33551C27.2992 4.3479 27.2984 4.3603 27.2974 4.37269C27.2966 4.38285 27.2957 4.39301 27.2948 4.40317C27.2938 4.4147 27.2927 4.42624 27.2915 4.43777C27.2904 4.44864 27.2892 4.45951 27.288 4.47038C27.2866 4.48224 27.2852 4.49409 27.2837 4.50594C27.2823 4.51681 27.2809 4.52768 27.2794 4.53854C27.2778 4.55013 27.2761 4.5617 27.2744 4.57328C27.2727 4.58448 27.271 4.59569 27.2691 4.60689C27.2675 4.61669 27.2658 4.62648 27.2641 4.63628C27.2619 4.6491 27.2596 4.66192 27.2571 4.67473C27.2551 4.68579 27.2528 4.69682 27.2506 4.70786C27.2486 4.71775 27.2466 4.72765 27.2445 4.73753C27.2419 4.74991 27.2392 4.76228 27.2364 4.77464C27.2339 4.78575 27.2313 4.79684 27.2286 4.80793C27.2264 4.8173 27.224 4.82665 27.2217 4.836C27.2184 4.84909 27.2151 4.86218 27.2116 4.87524C27.209 4.88491 27.2063 4.89456 27.2037 4.90422C27.2005 4.91547 27.1974 4.92674 27.1942 4.93797C27.1906 4.95017 27.1869 4.96233 27.1832 4.9745C27.1801 4.98452 27.1771 4.99456 27.1739 5.00456C27.1701 5.01652 27.1662 5.02844 27.1622 5.04037C27.159 5.05 27.1558 5.05966 27.1525 5.06927C27.1484 5.08132 27.144 5.0933 27.1396 5.10531C27.136 5.11542 27.1324 5.12556 27.1287 5.13565C27.1246 5.14648 27.1204 5.15727 27.1162 5.16807C27.112 5.17906 27.1078 5.19008 27.1034 5.20104C27.0986 5.21294 27.0936 5.22478 27.0886 5.23664C27.0849 5.24549 27.0813 5.25436 27.0775 5.26319C27.0715 5.27723 27.0652 5.2912 27.059 5.30518C27.0554 5.31301 27.052 5.32088 27.0484 5.32869C27.0427 5.34095 27.0369 5.35312 27.031 5.36533C27.0267 5.37443 27.0225 5.38359 27.018 5.39266C27.0137 5.40159 27.0091 5.41042 27.0046 5.41932C26.9953 5.4377 26.9859 5.45605 26.9762 5.47431C26.9572 5.50999 26.9376 5.54553 26.917 5.5807L26.8792 5.64321C26.7253 5.89095 26.5393 6.10673 26.3301 6.28855C25.7037 6.83288 24.8683 7.0725 24.0567 6.95305C23.1942 9.08 22.2095 10.6659 20.7916 11.8638C19.6857 12.798 18.343 13.4734 16.649 14.0021C18.473 13.976 20.2247 12.3011 21.8947 11.6798C22.404 11.4903 22.9543 11.3549 23.4973 11.3188C24.0296 11.2834 24.6318 11.3371 25.1425 11.1762C25.4648 11.0747 25.7347 10.8503 26.0394 10.7109C26.1925 10.6409 26.3576 10.5999 26.5173 10.6712C26.6396 10.7258 26.6814 10.8387 26.712 10.9594C26.8651 11.5643 26.8065 12.4262 26.8736 13.0848C26.9202 13.5427 27.0208 13.9914 27.0724 14.4482C27.1983 15.5641 26.9784 16.6914 26.3947 17.6559C26.1578 18.0474 25.8067 18.3614 25.5842 18.7607C25.5772 18.7732 25.5707 18.7859 25.5639 18.7986C25.5648 19.1572 25.5704 19.5179 25.5535 19.8763C25.4854 21.321 24.9141 22.7375 23.8258 23.7172C22.3409 25.0537 20.9236 24.9086 19.2993 25.6857C18.3198 26.1545 17.5361 26.8909 16.4893 27.2425C15.7455 27.4922 14.9329 27.6138 14.1493 27.5669C13.0272 27.4997 11.9766 27.0908 11.2268 26.234C11.1672 26.166 11.1102 26.096 11.0556 26.024C11.0011 25.952 10.9492 25.8781 10.8999 25.8024C10.8507 25.7267 10.8042 25.6493 10.7604 25.5702C10.7167 25.4912 10.6759 25.4106 10.638 25.3286C10.6 25.2467 10.565 25.1634 10.533 25.0789C10.5009 24.9945 10.4719 24.9089 10.446 24.8224C10.4201 24.7358 10.3973 24.6484 10.3776 24.5602C10.358 24.472 10.3414 24.3832 10.3281 24.2938C9.90942 21.4655 12.3769 19.8605 12.5607 17.2649C12.5604 17.142 12.5777 16.9062 12.5398 16.7296C12.3424 16.6621 12.1496 16.5715 11.9648 16.4571L11.9033 16.4179C11.692 16.2794 11.5053 16.1171 11.3443 15.9367C11.2144 15.8151 11.1057 15.6785 11.015 15.5311C9.27458 16.1506 8.00862 16.8495 7.01861 17.7101C5.92536 18.6604 5.13782 19.8343 4.42899 21.3942C4.44251 21.4032 4.45599 21.4123 4.4693 21.4215C4.48652 21.4335 4.50363 21.4456 4.52051 21.4579C4.52381 21.4603 4.52704 21.4629 4.53033 21.4653C4.54616 21.4769 4.56189 21.4886 4.5774 21.5006C4.58362 21.5054 4.58973 21.5103 4.5959 21.5151C4.6076 21.5242 4.6193 21.5334 4.63082 21.5427C4.64031 21.5503 4.64961 21.5582 4.65898 21.566C4.66757 21.5731 4.67622 21.5801 4.6847 21.5873C4.69427 21.5955 4.70368 21.6038 4.71311 21.612C4.72078 21.6187 4.7285 21.6253 4.73608 21.6321C4.74661 21.6414 4.75694 21.651 4.76731 21.6606C4.77418 21.6669 4.7811 21.6731 4.78789 21.6795C4.79792 21.6889 4.80777 21.6985 4.81764 21.708C4.82362 21.7138 4.82968 21.7194 4.83561 21.7253C4.84485 21.7344 4.85393 21.7436 4.86303 21.7528C4.87167 21.7615 4.88031 21.7703 4.88883 21.7791C4.89604 21.7866 4.90313 21.7942 4.91025 21.8017C4.91799 21.8099 4.92575 21.8181 4.93338 21.8264C4.94208 21.8359 4.95065 21.8454 4.9592 21.855C4.96629 21.8629 4.97333 21.8708 4.98031 21.8788C4.98805 21.8877 4.99567 21.8966 5.00329 21.9055C5.0101 21.9135 5.01691 21.9215 5.02362 21.9296C5.03169 21.9393 5.03968 21.949 5.0476 21.9588C5.05433 21.9671 5.06103 21.9754 5.06766 21.9838C5.07457 21.9925 5.08137 22.0013 5.08815 22.0101C5.09513 22.0191 5.10211 22.0281 5.10897 22.0372C5.11567 22.0461 5.12227 22.0551 5.12885 22.064C5.13613 22.0739 5.14333 22.0839 5.15046 22.0938C5.15636 22.1021 5.1622 22.1104 5.168 22.1187C5.17491 22.1286 5.18179 22.1385 5.18857 22.1484C5.19481 22.1576 5.20097 22.1669 5.2071 22.1761C5.21339 22.1856 5.21961 22.1951 5.22577 22.2047C5.23159 22.2137 5.23736 22.2228 5.24307 22.2318C5.24872 22.2408 5.25435 22.2498 5.2599 22.2589C5.26664 22.2699 5.27326 22.281 5.27984 22.292C5.28513 22.3009 5.29035 22.3098 5.29553 22.3188C5.30106 22.3283 5.30657 22.3379 5.31199 22.3475C5.31795 22.3581 5.32383 22.3687 5.32966 22.3793C5.33486 22.3889 5.34003 22.3984 5.34512 22.408C5.34991 22.417 5.35462 22.426 5.35931 22.4351C5.36504 22.4461 5.37076 22.4572 5.37634 22.4683C5.38145 22.4785 5.38639 22.4888 5.39137 22.499C5.39572 22.508 5.40011 22.5169 5.40437 22.5259C5.40982 22.5374 5.41516 22.5489 5.42045 22.5605C5.42465 22.5697 5.42889 22.5789 5.43299 22.5881C5.43757 22.5984 5.44198 22.6088 5.44643 22.6191C5.45048 22.6285 5.45459 22.6379 5.45853 22.6474C5.46318 22.6585 5.46762 22.6698 5.47213 22.681C5.47662 22.6921 5.48115 22.7032 5.48549 22.7145C5.48876 22.7229 5.49182 22.7314 5.49501 22.7398C5.49918 22.7509 5.50345 22.7619 5.50748 22.7731C5.51152 22.7842 5.51534 22.7955 5.51924 22.8067C5.52301 22.8175 5.52686 22.8283 5.5305 22.8392C5.53296 22.8466 5.53526 22.854 5.53767 22.8614C5.54208 22.8749 5.54653 22.8884 5.55074 22.9021C5.55339 22.9106 5.55586 22.9193 5.55843 22.9279C5.56224 22.9406 5.56612 22.9533 5.56975 22.9661C5.57903 22.9989 5.58756 23.0319 5.59566 23.0649C5.60566 23.1058 5.61468 23.1468 5.62286 23.1881C5.62535 23.2007 5.62793 23.2132 5.63025 23.2258C5.63141 23.2321 5.63247 23.2384 5.63359 23.2447C5.63628 23.2599 5.63892 23.275 5.64136 23.2902C5.64261 23.298 5.64371 23.3058 5.64489 23.3136C5.64707 23.3279 5.64922 23.3422 5.65117 23.3566C5.65225 23.3645 5.65322 23.3724 5.65423 23.3802C5.65602 23.3943 5.65777 23.4083 5.65936 23.4224C5.66064 23.4339 5.66174 23.4453 5.66289 23.4568C5.66401 23.4679 5.66522 23.479 5.66621 23.4902C5.66717 23.5011 5.66795 23.512 5.66879 23.5229C5.66961 23.5337 5.6705 23.5445 5.67121 23.5553C5.67195 23.5667 5.67248 23.5781 5.67308 23.5895C5.67371 23.6012 5.67436 23.6129 5.67484 23.6247C5.67526 23.635 5.67549 23.6455 5.6758 23.6559C5.67613 23.667 5.67654 23.6781 5.67674 23.6893C5.67695 23.7012 5.67703 23.7131 5.67709 23.725C5.67714 23.7351 5.67721 23.7453 5.67715 23.7554C5.67708 23.7675 5.67681 23.7796 5.67658 23.7918C5.67638 23.8027 5.67618 23.8137 5.67585 23.8246C5.67557 23.8342 5.67523 23.8437 5.67485 23.8533C5.67432 23.8664 5.67374 23.8794 5.67303 23.8925C5.67247 23.9029 5.67174 23.9132 5.67107 23.9236C5.67026 23.936 5.66942 23.9484 5.66844 23.9608C5.66765 23.9709 5.66677 23.9811 5.66586 23.9912C5.66477 24.0035 5.6636 24.0157 5.66234 24.028C5.6613 24.0381 5.66017 24.0483 5.65901 24.0585C5.65766 24.0703 5.65628 24.0822 5.65478 24.094C5.6534 24.1049 5.65199 24.1158 5.65049 24.1266C5.64888 24.1382 5.64716 24.1498 5.64541 24.1613C5.64366 24.1729 5.64184 24.1844 5.63995 24.196C5.6384 24.2054 5.63682 24.2149 5.63517 24.2243C5.63293 24.2372 5.63061 24.25 5.62819 24.2628C5.62611 24.2739 5.6239 24.2849 5.62168 24.2959C5.61968 24.3058 5.61767 24.3157 5.61557 24.3256C5.61294 24.338 5.61023 24.3503 5.60743 24.3627C5.60491 24.3738 5.60231 24.3849 5.59966 24.396C5.59741 24.4054 5.59507 24.4147 5.59273 24.4241C5.58945 24.4372 5.58613 24.4503 5.58265 24.4633C5.58008 24.473 5.57739 24.4826 5.57471 24.4923C5.57159 24.5035 5.56848 24.5148 5.56521 24.526C5.56166 24.5382 5.55798 24.5504 5.55426 24.5626C5.55119 24.5726 5.54816 24.5826 5.54498 24.5926C5.54117 24.6046 5.53722 24.6165 5.53325 24.6284C5.53004 24.6381 5.52688 24.6477 5.52356 24.6573C5.51941 24.6694 5.51503 24.6814 5.5107 24.6934C5.50706 24.7035 5.50348 24.7136 5.49971 24.7237C5.49567 24.7346 5.49147 24.7453 5.48729 24.7561C5.48301 24.7672 5.47874 24.7783 5.47432 24.7893C5.46956 24.8011 5.46463 24.8129 5.4597 24.8247C5.456 24.8336 5.45235 24.8424 5.44856 24.8513C5.44252 24.8653 5.43629 24.8793 5.43001 24.8933C5.42649 24.9011 5.42303 24.9089 5.41943 24.9168C5.4138 24.929 5.40793 24.9412 5.4021 24.9534C5.39776 24.9625 5.39354 24.9717 5.38909 24.9807C5.38471 24.9897 5.38012 24.9985 5.37564 25.0074C5.36918 25.0202 5.36279 25.0331 5.35611 25.0459C5.33453 25.0872 5.31189 25.1282 5.28807 25.1688L5.25025 25.2313C5.0955 25.4803 4.90843 25.6971 4.69782 25.8796C3.92113 26.5523 2.82457 26.7577 1.85027 26.3922C1.71753 26.3424 1.58711 26.2819 1.46003 26.2107C1.42386 26.1904 1.38785 26.1694 1.35226 26.1473C1.29859 26.1141 1.24651 26.0792 1.19587 26.043C1.16885 26.0237 1.14214 26.0042 1.11599 25.9841C1.10133 25.9728 1.0869 25.9613 1.07251 25.9498C1.06838 25.9465 1.06417 25.9433 1.06006 25.9399C1.05361 25.9347 1.04731 25.9293 1.04092 25.9241C1.01079 25.8992 0.981214 25.874 0.952342 25.8481C0.945918 25.8423 0.939619 25.8365 0.933257 25.8307C0.922131 25.8205 0.91097 25.8104 0.900036 25.8001C0.891297 25.7919 0.882751 25.7834 0.874135 25.7751C0.866355 25.7676 0.858505 25.7601 0.850826 25.7525C0.841954 25.7438 0.833283 25.7348 0.824545 25.7259C0.818184 25.7194 0.811714 25.7131 0.805424 25.7066L0.798548 25.6995C0.791511 25.6921 0.784692 25.6846 0.777745 25.6772C0.769506 25.6684 0.761212 25.6596 0.7531 25.6508C0.746974 25.6441 0.740955 25.6373 0.734902 25.6305C0.725978 25.6205 0.717033 25.6106 0.708268 25.6005C0.701333 25.5926 0.69456 25.5845 0.687725 25.5764C0.6797 25.567 0.671645 25.5576 0.663757 25.5481C0.656167 25.5389 0.648739 25.5296 0.641275 25.5203C0.634756 25.5123 0.628187 25.5042 0.621765 25.4961C0.614705 25.4871 0.607798 25.4781 0.600856 25.469C0.593132 25.459 0.585389 25.449 0.577811 25.4388C0.571034 25.4298 0.564448 25.4206 0.557788 25.4114C0.551205 25.4024 0.544589 25.3934 0.538121 25.3843C0.532462 25.3763 0.526908 25.3683 0.521338 25.3603C0.514078 25.3498 0.506806 25.3394 0.499696 25.3288C0.492766 25.3186 0.486007 25.3082 0.479221 25.2979C0.474058 25.29 0.46882 25.2822 0.463741 25.2743C0.456964 25.2637 0.450375 25.253 0.443746 25.2424C0.437814 25.2329 0.431859 25.2234 0.426046 25.2138C0.420474 25.2046 0.415036 25.1953 0.409574 25.1861C0.403864 25.1764 0.398141 25.1667 0.392551 25.157C0.385947 25.1455 0.379473 25.134 0.373037 25.1224C0.368728 25.1147 0.364421 25.1069 0.360188 25.0991C0.354053 25.0878 0.34805 25.0765 0.342074 25.0651C0.337119 25.0557 0.332157 25.0463 0.327312 25.0369C0.321987 25.0265 0.316773 25.016 0.31158 25.0055C0.307071 24.9964 0.302578 24.9874 0.298169 24.9782C0.292581 24.9667 0.287142 24.955 0.281716 24.9434C0.277151 24.9336 0.272621 24.9238 0.268171 24.914C0.263438 24.9035 0.258776 24.893 0.254173 24.8825C0.250216 24.8734 0.24627 24.8644 0.242409 24.8553C0.237209 24.8431 0.232137 24.8308 0.227112 24.8185C0.223635 24.81 0.220177 24.8015 0.216784 24.793C0.212185 24.7814 0.207663 24.7698 0.203218 24.7582C0.19946 24.7484 0.195706 24.7385 0.192058 24.7287C0.188065 24.7179 0.184219 24.707 0.180359 24.6962C0.176482 24.6853 0.172613 24.6744 0.16887 24.6634C0.165556 24.6537 0.162306 24.644 0.159097 24.6343C0.15528 24.6227 0.151524 24.6112 0.147856 24.5995C0.144754 24.5897 0.141705 24.5799 0.138711 24.57C0.135241 24.5586 0.131826 24.5472 0.128501 24.5357C0.125231 24.5245 0.122059 24.5132 0.118929 24.5019C0.116219 24.4921 0.113606 24.4823 0.111001 24.4724C0.108137 24.4616 0.10532 24.4508 0.102584 24.44C0.099593 24.4282 0.0966625 24.4163 0.0938247 24.4044C0.0913191 24.394 0.0888865 24.3835 0.0865002 24.373C0.084103 24.3624 0.0817482 24.3518 0.0794717 24.3413C0.0771056 24.3302 0.0748261 24.3192 0.0725907 24.3082C0.0702034 24.2964 0.0678889 24.2846 0.065651 24.2728C0.06356 24.2618 0.0615789 24.2507 0.0596187 24.2397C0.0578504 24.2297 0.0561055 24.2197 0.0544439 24.2097C0.0524774 24.1979 0.0505258 24.1861 0.0487089 24.1742C0.0470749 24.1635 0.0455644 24.1528 0.0440517 24.1422C0.0423087 24.1299 0.0405876 24.1175 0.039006 24.1052C0.0377935 24.0957 0.0366559 24.0863 0.0355384 24.0768C0.0340881 24.0645 0.0327404 24.0522 0.0314507 24.0399C0.0302628 24.0286 0.0291008 24.0172 0.0280494 24.0059C0.0270877 23.9955 0.0261811 23.9851 0.0253338 23.9747C0.0243693 23.9628 0.0235361 23.951 0.0227202 23.9391C0.0220013 23.9287 0.0212473 23.9182 0.020644 23.9077C0.0199437 23.8956 0.0193617 23.8835 0.0188177 23.8713C0.0183349 23.8605 0.0179502 23.8497 0.0175906 23.8389C0.0171907 23.8269 0.0169206 23.8149 0.0166737 23.8028C0.0164671 23.7928 0.0161948 23.7827 0.0160955 23.7727C0.0159786 23.7608 0.0159947 23.749 0.0160268 23.7371C0.0160579 23.7256 0.0161398 23.714 0.0163127 23.7025C0.0164847 23.691 0.0167415 23.6795 0.0170538 23.668C0.0173349 23.6576 0.0176542 23.6473 0.0180495 23.6369C0.0184745 23.6258 0.0190439 23.6147 0.0196011 23.6035C0.0202387 23.5908 0.0208611 23.5781 0.0216721 23.5653C0.0222069 23.5569 0.0228396 23.5485 0.0234499 23.5401C0.0244335 23.5266 0.025474 23.513 0.0266542 23.4995C0.02748 23.49 0.0284095 23.4806 0.0293318 23.4711C0.0306517 23.4575 0.0319888 23.444 0.0335068 23.4304C0.0346242 23.4205 0.0359191 23.4105 0.0371441 23.4006C0.0386099 23.3886 0.0400519 23.3767 0.041672 23.3648C0.0431265 23.3541 0.0447031 23.3434 0.0462822 23.3327C0.0480565 23.3207 0.0498363 23.3087 0.0517683 23.2967C0.0532847 23.2872 0.0549589 23.2778 0.0565727 23.2684C0.0588553 23.2551 0.0611085 23.2418 0.0635863 23.2285C0.065333 23.2191 0.0671851 23.2098 0.069029 23.2004C0.0715211 23.1877 0.0740096 23.1751 0.0766796 23.1624C0.0790767 23.1511 0.0817012 23.1398 0.084242 23.1284C0.0866723 23.1176 0.0890313 23.1067 0.0915933 23.0959C0.0940495 23.0855 0.0966858 23.0752 0.0992633 23.0648C0.102337 23.0525 0.105338 23.0401 0.108585 23.0278C0.111468 23.0168 0.114577 23.0059 0.117596 22.995C0.12055 22.9843 0.123423 22.9736 0.126508 22.9629C0.130105 22.9505 0.133923 22.9381 0.137698 22.9257C0.14069 22.9158 0.143578 22.906 0.146682 22.8961C0.150266 22.8848 0.154099 22.8735 0.157833 22.8622C0.161504 22.8511 0.16513 22.84 0.168946 22.8289C0.171795 22.8206 0.174799 22.8124 0.177729 22.8041C0.18271 22.7901 0.187652 22.776 0.192868 22.762C0.195191 22.7557 0.197655 22.7496 0.200024 22.7433C0.205958 22.7277 0.211963 22.7122 0.21819 22.6966C0.220225 22.6916 0.222344 22.6865 0.22441 22.6815C0.231247 22.6647 0.238139 22.6479 0.24532 22.6313C0.247039 22.6273 0.248852 22.6233 0.250591 22.6193C0.258067 22.6022 0.265662 22.585 0.273505 22.568C0.27853 22.5571 0.283816 22.5462 0.288993 22.5353C0.293917 22.525 0.298718 22.5145 0.303779 22.5042C0.307073 22.4975 0.31051 22.4909 0.313861 22.4842C0.35296 22.406 0.395874 22.3288 0.442928 22.2531C0.475575 22.2005 0.509818 22.1495 0.54526 22.0999C0.551579 22.091 0.557768 22.0821 0.564173 22.0733C0.571552 22.0632 0.579197 22.0534 0.586689 22.0434C0.593367 22.0345 0.599904 22.0255 0.60667 22.0167C0.614831 22.0061 0.623223 21.9957 0.631511 21.9853C0.637984 21.9771 0.644326 21.9689 0.650876 21.9608C0.658674 21.9512 0.66669 21.9417 0.674596 21.9323C0.681761 21.9236 0.688824 21.915 0.696075 21.9065C0.706656 21.8941 0.717458 21.8819 0.728221 21.8697C0.732675 21.8647 0.737021 21.8595 0.741507 21.8545C0.752082 21.8427 0.762869 21.8311 0.773614 21.8195C0.778861 21.8139 0.783987 21.8081 0.789273 21.8025C0.79858 21.7926 0.808101 21.783 0.817529 21.7732C0.8246 21.7659 0.831573 21.7586 0.838711 21.7514C0.847863 21.7421 0.857212 21.7331 0.866473 21.724C0.873503 21.7171 0.880439 21.7101 0.887531 21.7033C0.896224 21.6949 0.905044 21.6867 0.913828 21.6785C0.922455 21.6704 0.931055 21.6623 0.939769 21.6544C0.946838 21.6479 0.954008 21.6416 0.961134 21.6352C0.97112 21.6263 0.981073 21.6173 0.991169 21.6085C1.00078 21.6002 1.01055 21.592 1.02027 21.5838C1.02745 21.5777 1.03457 21.5716 1.0418 21.5656C1.05146 21.5575 1.06123 21.5497 1.07098 21.5418C1.07992 21.5346 1.08884 21.5274 1.09786 21.5203C1.10602 21.5139 1.11428 21.5076 1.12249 21.5013C1.13196 21.494 1.1414 21.4867 1.15094 21.4795C1.16165 21.4715 1.17247 21.4637 1.18327 21.4558C1.19054 21.4505 1.19777 21.4452 1.20508 21.44C1.21688 21.4316 1.22878 21.4233 1.24069 21.4151C1.24741 21.4105 1.2541 21.4058 1.26086 21.4012C1.27178 21.3938 1.28279 21.3866 1.2938 21.3793C1.30253 21.3736 1.31126 21.3679 1.32004 21.3623C1.32933 21.3563 1.33868 21.3505 1.34803 21.3447C1.35814 21.3383 1.36825 21.332 1.37843 21.3258C1.38772 21.3202 1.3971 21.3147 1.40645 21.3092C1.41622 21.3034 1.42596 21.2976 1.43579 21.2919C1.44687 21.2856 1.45806 21.2794 1.46921 21.2732C1.47744 21.2686 1.48565 21.264 1.49392 21.2595C1.50583 21.253 1.51781 21.2466 1.52981 21.2403C1.5376 21.2362 1.54538 21.232 1.55321 21.228C1.5656 21.2216 1.57809 21.2155 1.59057 21.2093C1.59869 21.2053 1.60679 21.2012 1.61494 21.1973C1.62555 21.1922 1.63621 21.1872 1.64687 21.1822C1.65714 21.1773 1.6674 21.1725 1.67772 21.1678C1.6876 21.1634 1.69752 21.159 1.70745 21.1546C1.71874 21.1496 1.73004 21.1447 1.74138 21.1399C1.75019 21.1361 1.75902 21.1325 1.76786 21.1288C1.7796 21.124 1.79138 21.1192 1.80318 21.1145C1.81315 21.1106 1.82315 21.1067 1.83316 21.1029C1.84358 21.0989 1.85399 21.0949 1.86445 21.091C1.87583 21.0868 1.88724 21.0827 1.89867 21.0786C1.90796 21.0753 1.91726 21.072 1.92659 21.0688C1.93916 21.0644 1.95177 21.0602 1.9644 21.0561C1.97276 21.0533 1.98112 21.0506 1.9895 21.0479C2.00192 21.0439 2.01437 21.0401 2.02684 21.0363C2.03709 21.0332 2.04734 21.0301 2.05762 21.0271C2.06807 21.024 2.07856 21.0211 2.08905 21.0182C2.09971 21.0152 2.11038 21.0123 2.12107 21.0094C2.133 21.0062 2.14494 21.0031 2.15691 21.0001C2.16647 20.9977 2.17604 20.9953 2.18562 20.993C2.19761 20.9901 2.20962 20.9873 2.22164 20.9845C2.23149 20.9823 2.24134 20.9801 2.25121 20.9779C2.26368 20.9752 2.27617 20.9726 2.28868 20.9701C2.29815 20.9682 2.30764 20.9663 2.31713 20.9645C2.32901 20.9622 2.3409 20.9599 2.35281 20.9578C2.36385 20.9558 2.37491 20.954 2.38597 20.9521C2.39682 20.9503 2.40767 20.9485 2.41854 20.9469C2.42967 20.9451 2.44081 20.9435 2.45195 20.9419C2.46325 20.9403 2.47454 20.9387 2.48586 20.9372C2.49679 20.9357 2.50774 20.9344 2.5187 20.9331C2.53035 20.9317 2.54201 20.9304 2.55368 20.9291C2.56353 20.9281 2.57338 20.9271 2.58324 20.9262C2.59617 20.925 2.60911 20.9238 2.62206 20.9227C2.63214 20.9219 2.64223 20.9211 2.65232 20.9204C2.66373 20.9196 2.67515 20.9188 2.68658 20.9181C2.69777 20.9174 2.70897 20.9169 2.72018 20.9164C2.73227 20.9158 2.74437 20.9153 2.75648 20.9149C2.76631 20.9145 2.77615 20.9143 2.786 20.914C2.79865 20.9137 2.81131 20.9135 2.82398 20.9133C2.83324 20.9132 2.84251 20.9132 2.85178 20.9132C2.86556 20.9132 2.87935 20.9132 2.89314 20.9134C2.90167 20.9135 2.9102 20.9137 2.91874 20.9139C2.93234 20.9142 2.94595 20.9145 2.95956 20.915C2.96893 20.9154 2.97828 20.9159 2.98765 20.9163C3.00131 20.9169 3.01497 20.9176 3.02863 20.9185C3.03666 20.919 3.04468 20.9196 3.05271 20.9201C3.06724 20.9211 3.08177 20.9223 3.09629 20.9235C3.10497 20.9242 3.11364 20.9251 3.12232 20.9259C3.1355 20.9272 3.14869 20.9284 3.16187 20.9299C3.1723 20.931 3.18273 20.9323 3.19316 20.9335C3.20534 20.935 3.21754 20.9365 3.22972 20.9381C3.23906 20.9394 3.24838 20.9408 3.25771 20.9421C3.27154 20.9441 3.28537 20.9461 3.29918 20.9483C3.30828 20.9498 3.31737 20.9514 3.32647 20.9529C3.3389 20.955 3.35135 20.9571 3.36377 20.9594C3.37381 20.9612 3.38384 20.9632 3.39387 20.9652C3.40713 20.9678 3.4204 20.9703 3.43364 20.9731C3.43743 20.9739 3.44122 20.9748 3.44501 20.9756C4.19688 19.3157 5.06787 17.9901 6.3175 16.9039C7.42059 15.945 8.79433 15.1938 10.5883 14.5487C10.438 14.4359 10.1711 14.3648 10.0426 14.3192C7.53343 13.631 5.20052 15.4261 2.67184 14.0922C2.59197 14.05 2.51369 14.0049 2.43703 13.957C2.36037 13.9092 2.28546 13.8587 2.21242 13.8055C2.13942 13.7523 2.0684 13.6966 1.99936 13.6383C1.93027 13.5801 1.86334 13.5194 1.79864 13.4564C1.7339 13.3934 1.67151 13.3281 1.61147 13.2606C1.55143 13.1931 1.49387 13.1235 1.43878 13.0519C1.38374 12.9803 1.33127 12.9069 1.28143 12.8315C1.23161 12.7562 1.18457 12.6791 1.14024 12.6004C0.580969 11.6086 0.544039 10.4816 0.853077 9.4008C1.06895 8.64596 1.45346 7.91969 1.93592 7.3009C2.61507 6.43003 3.56973 5.93518 4.33697 5.16669ZM15.8668 15.5406C15.648 15.883 15.434 16.1427 15.1415 16.4261C15.3676 16.6705 15.6589 16.8784 15.8471 17.1532C15.8612 17.1664 15.8756 17.1793 15.8895 17.1927C16.0497 17.3482 16.1771 17.555 16.2978 17.7416C16.8029 18.5223 17.1135 19.3417 17.2247 20.2674C17.2928 20.8346 17.2355 21.4264 17.3288 21.9843C17.5529 23.323 18.7527 23.914 20.0191 23.9286C21.1345 23.9413 22.3224 23.4095 23.1157 22.6355C23.9409 21.8303 24.2716 20.7116 24.2862 19.584C24.2866 19.5533 24.2865 19.5225 24.2861 19.4918C23.323 19.9251 22.4176 20.0098 21.4202 19.6277C20.6435 19.3303 20.0144 18.8043 19.458 18.1969C18.5826 17.2409 17.9777 16.0616 16.6508 15.6638C16.4041 15.5898 16.1251 15.5233 15.8668 15.5406ZM14.0308 17.2719C13.9969 17.4806 13.9623 17.6867 13.9109 17.8919C13.7588 18.589 13.5115 19.2396 13.1868 19.8749C12.8977 20.4404 12.5338 20.9646 12.2444 21.5284C11.668 22.6515 11.3355 24.0977 12.0681 25.2295C12.4585 25.8326 13.084 26.1889 13.7791 26.3303C14.9564 26.5698 16.1402 26.1503 17.1168 25.4971C17.42 25.2943 17.707 25.061 17.998 24.841C17.0962 24.3381 16.4227 23.6614 16.1364 22.6457C15.9986 22.1567 15.9875 21.6627 15.9682 21.1589C15.9053 19.5162 15.6087 18.9361 14.556 17.7457C14.3865 17.5817 14.2114 17.4237 14.0308 17.2719ZM18.3325 14.9392C18.5857 15.2954 18.925 15.5791 19.1987 15.9188C20.1387 17.0855 20.9721 18.3524 22.5653 18.616C22.5938 18.6206 22.6224 18.625 22.651 18.629C23.4671 18.6337 24.154 18.2747 24.7258 17.7045C24.7692 17.6619 24.8114 17.6182 24.8525 17.5736C24.8937 17.5288 24.9338 17.4831 24.9727 17.4365C25.0116 17.3897 25.0493 17.3421 25.0858 17.2935C25.1224 17.245 25.1577 17.1955 25.1918 17.1451C25.2258 17.0948 25.2586 17.0437 25.2901 16.9917C25.3216 16.9398 25.3519 16.8871 25.3807 16.8336C25.4097 16.7802 25.4372 16.726 25.4634 16.6712C25.4896 16.6164 25.5143 16.5609 25.5378 16.5049C25.5612 16.4488 25.5833 16.3922 25.6039 16.3351C25.6245 16.2779 25.6437 16.2203 25.6614 16.1622C25.6792 16.1041 25.6955 16.0456 25.7103 15.9867C25.7251 15.9279 25.7385 15.8686 25.7503 15.8091C25.7622 15.7495 25.7725 15.6897 25.7814 15.6296C25.7903 15.5695 25.7977 15.5093 25.8036 15.4488C25.8095 15.3884 25.8139 15.3279 25.8168 15.2672C25.8197 15.2066 25.821 15.1458 25.8208 15.0851C25.8136 14.1618 25.615 13.2174 25.5316 12.2961C24.5692 12.6846 23.5054 12.4867 22.5151 12.8091C21.033 13.3211 19.7932 14.3544 18.3325 14.9392ZM12.4716 12.5213C12.2513 12.6633 12.0581 12.8551 11.9106 13.0925C11.3789 13.9483 11.6412 15.0716 12.4964 15.6015C12.5801 15.6534 12.6665 15.6976 12.7546 15.7344C13.3096 15.9439 13.9571 15.8736 14.4674 15.4907C15.2603 14.8959 15.4218 13.7722 14.8282 12.9809C14.272 12.2395 13.2504 12.0528 12.4716 12.5213ZM8.48087 2.57879C7.48745 3.0702 6.5915 4.0144 6.23329 5.07089C5.82666 6.27045 5.98574 7.59853 7.17408 8.25432C7.66925 8.52759 8.24644 8.66991 8.75889 8.92248C9.59503 9.33465 10.2648 9.89969 10.8335 10.6353C10.9695 10.8112 11.1222 11 11.2156 11.2028C11.2237 11.2203 11.2311 11.2382 11.2388 11.2558C11.3868 11.458 11.4797 11.7027 11.5828 11.9369C11.9576 11.6043 12.4093 11.3823 12.8871 11.2828C12.899 11.1846 12.906 11.0865 12.9104 10.9921C12.9757 9.60824 12.0642 8.64613 11.4532 7.50286C11.0649 6.77636 10.7776 6.00831 10.7549 5.17679C10.7256 4.10903 11.106 3.28294 11.8344 2.51818C11.8056 2.5076 11.7766 2.49738 11.7475 2.48753C10.6791 2.12699 9.51418 2.06761 8.48087 2.57879ZM3.79036 7.28824C2.85008 7.99273 2.06151 8.97033 1.89657 10.1605C1.79925 10.8632 1.92767 11.5716 2.36695 12.14C3.19128 13.2069 4.66565 13.3733 5.91622 13.2023C6.54406 13.1164 7.15926 12.9472 7.78858 12.8621C8.49554 12.7667 9.19135 12.7493 9.89934 12.8372C10.11 12.8568 10.3159 12.8926 10.524 12.93C10.4407 12.7092 10.3499 12.4916 10.2514 12.2772C9.47809 10.8889 9.02936 10.4165 7.50089 9.81188C7.0321 9.62646 6.56988 9.45203 6.15439 9.15969C5.29146 8.5524 4.87677 7.69244 4.70176 6.67465C4.39764 6.87621 4.08235 7.06947 3.79036 7.28824ZM13.6662 2.69677C12.9386 3.04692 12.3719 3.57575 12.1055 4.3472C12.0998 4.37552 12.0944 4.40398 12.0893 4.43245C11.8091 6.02299 12.7274 7.22969 13.5157 8.50385C13.7453 8.87477 13.9002 9.28903 14.1522 9.64613C15.1886 8.46225 16.5748 7.63567 17.5497 6.40736C18.1825 5.58016 18.349 4.51082 19.0348 3.73191C18.1935 3.34735 17.3688 2.84647 16.5003 2.53318C16.4431 2.51286 16.3853 2.49399 16.3272 2.47657C16.269 2.45915 16.2105 2.44319 16.1515 2.42872C16.0926 2.41421 16.0333 2.40119 15.9737 2.38965C15.9141 2.3781 15.8542 2.36801 15.7941 2.3594C15.734 2.35084 15.6736 2.34376 15.6132 2.33819C15.5527 2.33263 15.4921 2.32859 15.4315 2.32607C15.3708 2.32352 15.3101 2.32251 15.2493 2.32298C15.1886 2.32346 15.1278 2.32541 15.0672 2.32888C15.0065 2.33241 14.946 2.33741 14.8856 2.34391C14.8253 2.35041 14.765 2.35844 14.705 2.36797C14.645 2.37746 14.5853 2.38852 14.5258 2.40101C14.4664 2.41347 14.4072 2.42739 14.3485 2.44283C14.2897 2.45827 14.2313 2.47517 14.1734 2.49352C14.1155 2.51183 14.058 2.53161 14.001 2.5528C13.9441 2.574 13.8876 2.59664 13.8318 2.62065C13.776 2.64462 13.7208 2.67001 13.6662 2.69677Z" fill="#4AE84F"/>
</g>
<defs>
<clipPath id="clip0_3585_7008">
<rect width="28" height="28" fill="white"/>
</clipPath>
</defs>
</svg>
